{"glyphs":{"0":{"ha":360,"x_min":0,"x_max":0,"o":"m 121 15 b 171 10 128 14 146 7 b 264 71 232 17 264 71 b 322 279 308 144 322 279 b 311 604 349 481 311 604 b 188 753 272 746 188 753 b 100 724 136 760 107 732 b 42 561 100 724 61 690 b 35 503 39 542 36 522 b 29 385 32 464 31 424 b 29 272 28 346 28 307 b 121 15 29 272 26 72 z m 75 403 b 140 715 81 661 140 715 b 218 642 150 721 182 733 b 243 433 243 574 243 504 b 235 258 243 375 242 315 b 211 153 235 258 226 199 b 129 57 211 153 174 29 b 79 210 89 78 79 210 b 75 304 76 239 76 271 b 75 403 74 336 74 369 z "},"1":{"ha":186,"x_min":0,"x_max":0,"o":"m 40 636 b 61 638 50 626 61 638 b 85 661 68 642 76 651 b 68 165 72 518 69 243 b 111 14 67 60 68 14 b 146 101 139 14 146 101 b 149 692 161 240 161 604 b 103 750 136 781 103 750 b 36 676 78 731 36 676 b 40 636 24 663 25 650 z "},"2":{"ha":318,"x_min":0,"x_max":0,"o":"m 197 13 b 228 17 211 14 222 14 b 251 39 251 29 251 39 b 226 56 250 46 240 51 b 111 63 171 72 111 63 b 201 218 157 122 201 218 b 286 510 244 308 274 411 b 289 603 290 547 290 578 b 274 682 286 643 278 672 b 172 754 239 763 172 754 b 72 631 108 750 72 690 b 89 606 72 622 78 606 b 99 611 93 606 96 607 b 121 661 107 624 121 661 b 186 701 121 661 140 710 b 236 614 186 701 238 694 b 189 417 236 556 210 469 b 119 247 175 381 143 301 b 38 106 119 247 74 156 b 29 86 35 101 32 94 b 49 17 24 69 24 29 b 60 13 50 15 54 14 b 197 13 60 13 125 3 z "},"3":{"ha":338,"x_min":0,"x_max":0,"o":"m 33 128 b 140 8 44 64 71 15 b 213 22 164 6 190 10 b 307 213 293 68 307 213 b 310 249 308 225 310 238 b 256 465 310 394 256 465 b 278 547 264 479 275 506 b 276 603 279 568 278 588 b 261 682 272 643 265 672 b 192 751 236 740 192 751 b 160 754 181 754 171 756 b 61 631 93 746 61 693 b 78 606 61 617 64 610 b 86 611 81 604 83 607 b 94 626 89 615 92 621 b 156 701 94 626 115 692 b 204 688 156 701 185 710 b 224 614 211 679 224 658 b 213 532 224 588 221 558 b 128 453 201 500 182 444 b 107 439 128 453 106 457 b 165 408 108 419 131 403 b 200 418 175 410 188 413 b 235 346 228 397 233 358 b 199 136 235 346 239 257 b 131 51 196 128 167 49 b 71 165 88 54 71 165 b 63 201 68 181 65 194 b 49 225 57 215 53 222 b 42 226 44 228 42 226 b 28 194 35 225 29 213 b 33 128 26 176 28 153 z "},"4":{"ha":310,"x_min":0,"x_max":0,"o":"m 31 319 b 42 300 32 315 35 300 b 65 292 49 293 65 292 b 150 289 99 288 150 289 b 147 165 149 235 147 190 b 190 14 147 60 149 14 b 225 101 219 14 225 101 b 235 292 231 146 233 217 b 257 294 244 293 251 293 b 282 317 285 301 282 317 b 254 335 281 325 271 331 b 236 339 249 336 243 338 b 228 692 239 483 235 639 b 182 750 217 781 182 750 b 104 639 143 718 104 639 b 60 532 88 607 72 569 b 31 319 60 532 17 392 z m 60 338 b 96 494 75 428 96 494 b 164 654 143 632 164 654 b 150 342 157 569 153 447 b 60 338 106 349 60 338 z "},"5":{"ha":339,"x_min":0,"x_max":0,"o":"m 33 143 b 60 61 38 115 46 85 b 140 8 60 61 81 13 b 213 24 164 7 192 10 b 297 176 272 64 297 176 b 304 399 325 308 304 399 b 207 571 289 521 207 571 b 88 608 138 617 88 608 b 92 700 96 651 92 700 b 253 701 139 694 231 696 b 276 724 279 708 276 724 b 94 750 274 756 125 749 b 51 731 69 751 56 746 b 49 588 51 731 36 646 b 68 569 53 567 68 569 b 233 413 92 565 207 538 b 231 299 233 413 239 368 b 199 153 231 299 218 218 b 131 57 196 143 167 53 b 71 185 93 61 71 185 b 49 251 68 199 61 243 b 42 254 43 254 42 254 b 28 219 35 253 29 239 b 33 143 26 199 28 171 z "},"6":{"ha":343,"x_min":0,"x_max":0,"o":"m 57 115 b 172 11 101 11 172 11 b 232 18 185 10 213 10 b 294 103 281 39 294 103 b 315 281 322 197 315 281 b 285 393 311 356 285 393 b 206 436 256 440 206 436 b 115 386 149 438 115 386 b 143 603 122 526 143 603 b 208 708 154 650 174 708 b 264 625 254 708 263 643 b 264 614 264 625 264 619 b 265 579 264 599 264 586 b 275 556 267 574 269 558 b 282 551 278 551 282 551 b 301 576 289 550 297 560 b 307 607 304 586 306 596 b 257 744 319 708 257 744 b 211 758 242 756 225 758 b 56 597 129 758 76 664 b 29 375 56 597 32 522 b 57 115 29 375 18 204 z m 114 279 b 126 315 117 292 121 303 b 126 318 126 317 126 317 b 128 321 128 318 128 319 l 131 325 b 132 329 131 326 132 328 b 135 333 133 331 133 332 b 139 343 136 336 138 340 b 142 347 140 344 142 346 b 144 351 143 349 144 350 b 157 365 149 356 153 361 b 206 385 169 378 188 385 b 211 383 207 385 210 385 l 215 383 b 221 382 217 383 218 382 l 222 382 l 225 381 b 232 378 226 381 229 379 b 238 374 233 376 236 375 b 249 360 242 369 246 365 b 257 340 251 353 254 347 b 269 250 267 311 269 281 b 268 207 269 235 268 221 l 268 197 b 267 193 268 196 267 194 b 267 188 267 192 267 189 b 265 179 267 185 265 182 l 264 169 b 242 90 261 146 254 111 b 240 86 242 89 242 88 b 239 83 240 86 239 85 b 238 81 239 83 238 82 b 192 60 231 71 214 50 b 113 272 122 94 113 203 l 113 276 z "},"7":{"ha":354,"x_min":0,"x_max":0,"o":"m 28 722 b 61 706 28 707 61 706 b 182 703 61 706 111 699 b 250 706 208 704 250 706 b 110 404 169 629 129 513 b 90 74 110 404 78 208 b 100 35 90 74 93 49 b 139 14 110 17 121 13 b 165 76 158 15 165 61 b 175 222 168 113 171 164 b 294 654 188 404 204 497 b 324 710 313 682 324 710 b 322 738 331 729 322 738 b 311 742 319 740 317 742 b 83 754 215 761 83 754 b 28 722 43 754 26 743 z "},"8":{"ha":338,"x_min":0,"x_max":0,"o":"m 65 65 b 158 15 65 65 96 21 b 206 21 174 14 190 15 b 301 149 275 46 301 149 b 310 228 306 168 310 196 b 236 438 310 294 299 401 b 303 619 326 460 303 619 b 164 754 285 769 164 754 b 94 710 119 750 94 710 b 82 682 90 701 85 693 b 64 540 61 597 64 540 b 106 449 64 540 71 468 b 33 289 46 419 33 289 b 65 65 33 289 10 149 z m 79 293 b 146 417 85 324 103 414 b 182 392 160 415 172 406 b 226 200 182 392 242 318 b 160 67 218 79 174 68 b 81 158 93 60 81 158 b 79 293 68 217 79 293 z m 103 614 b 164 719 106 643 124 718 b 232 561 164 719 244 728 b 175 463 225 471 188 463 b 118 496 136 463 118 496 b 103 614 92 536 103 614 z "},"9":{"ha":343,"x_min":0,"x_max":0,"o":"m 29 489 b 60 375 33 413 60 375 b 139 333 89 329 139 333 b 228 383 194 331 228 383 b 201 165 221 243 201 165 b 135 61 190 119 169 61 b 81 144 89 61 82 125 b 79 156 81 144 79 150 b 78 189 79 171 79 182 b 75 206 76 196 76 201 b 63 218 74 210 67 218 b 43 192 56 219 49 210 b 38 161 40 183 38 174 b 88 25 38 61 88 25 b 132 11 103 14 118 11 b 288 172 215 11 267 106 b 314 394 288 172 311 247 b 286 654 314 394 324 565 b 171 758 243 757 171 758 b 113 750 160 760 132 760 b 49 667 65 726 49 667 b 29 489 22 572 29 489 z m 74 519 b 76 572 74 536 74 554 b 76 576 76 574 76 575 b 78 581 76 578 76 579 b 78 590 78 585 78 588 l 79 599 b 101 679 83 626 89 654 b 103 682 101 681 103 682 b 104 685 104 683 104 685 b 107 689 106 686 106 688 b 151 710 113 699 131 718 b 169 697 157 706 163 703 b 208 647 185 685 201 665 b 231 497 226 599 231 549 l 231 492 b 218 454 226 478 222 465 b 217 451 217 453 217 451 b 215 449 217 450 215 450 l 214 444 b 211 440 213 443 213 442 b 210 435 211 439 210 438 b 204 426 207 432 206 429 b 201 422 203 425 203 424 b 199 418 200 421 200 419 b 133 385 181 393 164 385 l 128 386 b 124 388 126 386 125 386 l 119 388 b 113 392 117 389 114 390 b 106 396 110 393 108 394 b 94 410 101 399 97 404 b 90 418 93 413 92 415 b 74 519 76 446 74 488 z "},"\u0000":{"ha":0,"x_min":0,"x_max":0,"o":""},"\r":{"ha":347,"x_min":0,"x_max":0,"o":""}," ":{"ha":361,"x_min":0,"x_max":0,"o":""},"A":{"ha":438,"x_min":0,"x_max":0,"o":"m 239 743 b 47 138 239 743 82 739 b 33 140 40 139 36 140 b 28 136 31 142 28 139 b 33 115 28 129 31 121 b 44 104 36 110 40 106 b 46 104 46 104 46 104 b 42 25 44 79 43 53 b 64 -3 42 13 50 0 b 81 -3 68 -4 75 -4 b 88 6 85 -1 88 3 b 89 94 88 18 88 50 b 313 93 154 86 246 89 b 313 8 313 65 313 38 b 322 -3 313 3 317 -1 b 383 0 340 -8 364 -8 b 410 42 399 8 410 25 b 239 743 410 156 403 747 z m 90 131 b 233 696 97 313 126 629 b 311 124 233 696 303 676 b 90 131 217 117 139 124 z "},"B":{"ha":411,"x_min":0,"x_max":0,"o":"m 171 219 b 393 510 171 219 407 326 b 103 743 378 696 192 735 b 49 700 76 744 53 726 b 28 340 40 628 25 481 b 43 60 31 210 38 115 b 114 -1 47 25 78 -3 b 342 138 200 1 349 21 b 171 219 338 218 171 219 z m 122 326 b 147 674 122 453 142 628 b 160 682 149 679 154 683 b 310 482 197 672 310 629 b 122 235 310 307 122 235 b 122 326 122 261 122 294 z m 128 53 b 126 192 129 97 126 192 b 276 138 126 192 274 196 b 143 40 279 74 182 47 b 128 53 135 39 128 44 z "},"C":{"ha":393,"x_min":0,"x_max":0,"o":"m 303 611 b 310 604 303 607 306 604 b 333 618 318 607 326 611 b 340 642 340 625 343 633 b 253 744 322 753 253 744 b 31 351 253 744 49 751 b 243 1 31 351 -10 -35 b 364 142 243 1 333 8 b 351 189 368 158 364 176 b 342 197 349 192 344 194 b 332 192 338 200 332 197 b 239 39 326 158 303 50 b 138 144 181 29 153 83 b 128 333 118 219 128 333 b 256 707 160 694 256 707 b 303 611 290 710 301 643 z "},"D":{"ha":419,"x_min":0,"x_max":0,"o":"m 390 383 b 72 744 401 713 146 743 b 50 725 61 744 51 736 b 28 339 43 669 25 497 b 44 28 31 206 39 92 b 72 3 46 14 57 3 b 390 383 250 -8 379 107 z m 126 36 b 122 325 118 128 122 325 b 143 683 119 471 143 683 b 307 367 143 683 318 667 b 126 36 297 81 126 36 z "},"E":{"ha":386,"x_min":0,"x_max":0,"o":"m 358 118 b 351 138 357 125 354 132 b 344 139 350 140 346 140 b 138 40 267 33 138 40 b 128 213 138 40 132 119 b 282 217 165 213 224 213 b 297 228 288 217 294 221 b 304 250 300 233 303 242 b 297 256 304 253 301 256 b 126 251 275 254 188 251 b 124 328 125 276 124 303 b 142 704 121 458 142 704 b 336 699 182 710 301 701 b 344 708 342 699 346 703 b 338 738 343 722 338 738 b 75 746 332 756 140 749 b 50 724 63 744 53 736 b 28 407 43 681 28 574 b 58 17 28 208 39 64 b 78 3 61 8 68 3 b 354 93 124 -1 294 -6 b 358 118 358 101 360 110 z "},"F":{"ha":339,"x_min":0,"x_max":0,"o":"m 344 708 b 338 738 343 722 338 738 b 75 746 332 756 140 749 b 50 724 63 744 53 736 b 28 407 43 681 28 574 b 53 24 28 204 35 76 b 72 3 56 15 63 7 b 131 -1 90 -4 113 -4 b 135 4 133 0 135 1 b 122 213 132 22 124 90 b 282 217 161 213 221 211 b 297 228 288 217 294 221 b 304 250 300 233 303 242 b 297 256 304 253 301 256 b 122 251 275 254 185 250 b 124 328 122 275 122 300 b 142 704 128 458 142 704 b 336 699 182 710 301 701 b 344 708 342 699 346 703 z "},"G":{"ha":417,"x_min":0,"x_max":0,"o":"m 331 310 b 239 39 340 65 239 39 b 138 144 181 29 153 83 b 128 333 118 219 128 333 b 256 707 160 694 256 707 b 303 611 290 710 301 643 b 310 604 303 607 306 604 b 333 618 318 607 326 611 b 340 642 340 625 343 633 b 253 744 322 753 253 744 b 31 351 253 744 49 751 b 243 1 31 351 -10 -35 b 389 263 243 1 385 18 b 386 340 389 263 389 313 b 375 351 385 346 381 351 b 204 294 336 358 203 374 b 215 267 204 294 204 276 b 221 264 217 265 219 264 b 254 265 228 263 243 261 b 254 268 256 265 256 267 b 331 310 235 307 256 322 z "},"H":{"ha":465,"x_min":0,"x_max":0,"o":"m 396 743 b 350 742 378 746 360 743 b 340 731 344 740 340 736 b 329 126 338 671 318 328 b 110 128 238 118 163 121 b 144 718 115 325 139 644 b 119 750 146 733 135 747 b 71 747 103 753 82 750 b 61 736 65 746 61 742 b 54 136 60 675 49 335 b 33 140 44 138 38 139 b 28 136 31 142 28 139 b 33 115 28 129 31 121 b 44 104 36 110 40 106 b 54 101 49 103 51 103 b 61 21 56 68 58 40 b 76 0 63 11 68 3 b 103 -3 85 -3 93 -4 b 110 7 107 -1 110 3 b 108 92 108 29 108 58 b 331 93 179 86 271 90 b 340 22 333 65 336 42 b 351 7 340 15 346 10 b 415 0 369 -1 390 -3 b 419 7 418 0 419 3 b 438 690 400 149 429 576 b 396 743 440 717 421 740 z "},"I":{"ha":224,"x_min":0,"x_max":0,"o":"m 213 711 b 206 733 211 719 207 728 b 193 742 203 738 199 742 b 43 742 147 750 69 743 b 29 731 38 740 32 736 b 28 706 28 724 28 714 b 33 701 29 703 31 701 b 71 704 44 703 57 704 b 69 38 64 583 44 179 b 39 40 58 38 47 39 b 38 39 38 40 38 40 b 39 10 36 28 36 18 b 47 3 40 6 43 4 b 175 3 67 1 136 -4 b 181 8 178 4 179 6 b 188 33 183 14 188 24 b 186 36 189 35 188 36 b 149 35 181 36 167 36 b 171 706 133 203 164 625 b 207 706 186 706 200 706 b 213 711 210 706 213 708 z "},"J":{"ha":383,"x_min":0,"x_max":0,"o":"m 257 349 b 157 35 257 349 258 32 b 103 253 81 38 99 213 b 96 260 103 257 100 260 b 40 219 69 253 51 235 b 28 182 32 208 28 196 b 156 0 25 14 156 0 b 347 347 347 -11 347 347 b 356 701 354 500 356 650 b 332 739 357 717 347 732 b 267 742 308 749 281 744 b 257 731 261 740 257 736 b 257 349 258 690 258 518 z "},"K":{"ha":421,"x_min":0,"x_max":0,"o":"m 401 699 b 392 729 403 710 400 721 b 364 744 386 736 376 743 b 358 740 361 744 360 743 b 115 208 353 690 296 264 b 142 711 119 407 138 661 b 135 728 142 717 139 724 b 53 742 110 750 71 746 b 43 731 47 740 43 736 b 42 22 39 658 13 172 b 54 7 43 15 47 10 b 117 0 71 -1 93 -3 b 121 7 119 0 122 3 b 115 131 117 36 115 81 b 257 18 140 86 188 25 b 293 25 269 17 282 19 b 342 69 308 35 331 49 b 338 75 343 72 342 76 b 135 172 308 71 197 60 b 401 699 326 254 386 582 z "},"L":{"ha":392,"x_min":0,"x_max":0,"o":"m 117 38 b 140 711 107 228 135 647 b 133 728 140 717 139 724 b 51 742 108 750 69 746 b 42 731 46 740 42 736 b 36 22 38 664 17 210 b 53 6 36 14 43 7 b 361 43 107 -3 289 -25 b 376 72 369 51 375 61 b 365 140 379 89 381 118 b 360 140 364 142 361 142 b 117 38 349 115 288 13 z "},"M":{"ha":579,"x_min":0,"x_max":0,"o":"m 540 8 b 533 289 535 26 532 82 b 403 726 536 553 501 732 b 307 436 319 721 308 518 b 217 658 306 508 293 669 b 128 517 174 653 146 586 b 142 711 133 610 139 686 b 135 728 142 717 139 724 b 53 742 110 750 71 746 b 43 731 47 740 43 736 b 42 22 39 658 13 172 b 54 7 43 15 47 10 b 117 0 71 -1 93 -3 b 121 7 119 0 122 3 b 115 188 115 47 114 114 b 210 606 121 239 160 615 b 246 217 210 606 250 610 b 244 179 246 207 246 194 b 251 169 243 175 247 169 b 317 171 265 167 292 164 b 343 208 332 176 343 190 b 394 671 342 307 339 686 b 429 56 464 651 433 150 b 443 21 429 43 433 31 b 535 -1 467 -4 513 -3 b 540 8 539 -1 542 4 z "},"N":{"ha":454,"x_min":0,"x_max":0,"o":"m 408 7 b 400 289 401 25 399 78 b 269 726 403 553 369 724 b 133 586 213 728 164 651 b 142 711 136 647 140 692 b 135 728 142 717 139 724 b 53 742 110 750 71 746 b 43 731 47 740 43 736 b 42 22 39 658 13 172 b 54 7 43 15 47 10 b 117 0 71 -1 93 -3 b 121 7 119 0 122 3 b 125 464 110 96 117 297 b 261 654 139 514 194 658 b 304 54 332 650 307 150 b 318 18 303 42 308 28 b 403 -1 342 -4 382 -4 b 408 7 407 -1 410 3 z "},"O":{"ha":422,"x_min":0,"x_max":0,"o":"m 179 742 b 44 179 29 710 6 372 b 169 -1 81 0 169 -1 b 392 392 169 -1 368 -24 b 179 742 392 392 428 796 z m 294 411 b 167 38 263 50 167 38 b 69 328 167 38 79 29 b 183 704 61 606 133 696 b 285 599 242 714 269 660 b 294 411 304 525 294 411 z "},"P":{"ha":415,"x_min":0,"x_max":0,"o":"m 122 326 b 136 685 122 472 136 685 b 310 482 136 685 310 657 b 122 228 310 307 122 228 b 122 326 122 254 122 294 z m 129 10 b 124 189 121 68 124 189 b 393 510 124 189 406 278 b 104 742 383 689 203 732 b 39 686 71 746 40 719 b 28 340 33 610 25 472 b 43 31 31 221 39 94 b 67 -1 44 17 54 4 b 118 -4 82 -6 100 -7 b 129 10 125 -4 129 3 z "},"Q":{"ha":422,"x_min":0,"x_max":0,"o":"m 179 742 b 44 179 29 710 6 372 b 169 -1 81 0 169 -1 b 257 28 169 -1 210 -6 b 296 18 269 22 282 19 b 332 25 308 17 321 19 b 381 71 347 35 371 50 b 378 75 382 74 381 76 b 306 78 367 74 339 71 b 392 392 347 133 383 229 b 179 742 392 392 428 796 z m 176 172 b 163 183 174 178 168 182 b 133 182 153 186 140 186 b 131 176 131 181 131 178 b 203 65 138 163 161 107 b 167 38 182 39 167 38 b 69 328 167 38 79 29 b 183 704 61 606 133 696 b 285 599 242 714 269 660 b 294 411 304 525 294 411 b 231 111 281 256 254 164 b 176 172 211 125 192 146 z "},"R":{"ha":410,"x_min":0,"x_max":0,"o":"m 336 97 b 135 193 307 92 197 82 b 393 510 185 211 404 306 b 104 742 383 689 203 732 b 39 686 71 746 40 719 b 28 340 33 610 25 472 b 43 31 31 221 39 94 b 67 -1 44 17 54 4 b 118 -4 82 -6 100 -7 b 129 10 125 -4 129 3 b 124 136 125 43 124 96 b 256 39 150 94 194 46 b 292 47 268 39 281 42 b 340 92 307 56 329 71 b 336 97 342 94 340 97 z m 136 685 b 310 482 136 685 310 657 b 122 228 310 307 122 228 b 122 326 122 254 122 294 b 136 685 122 472 136 685 z "},"S":{"ha":413,"x_min":0,"x_max":0,"o":"m 111 182 b 76 189 100 188 86 189 b 68 181 72 189 68 186 b 199 3 65 107 96 10 b 364 157 311 -6 364 56 b 215 406 364 260 297 339 b 153 468 188 428 167 447 b 121 558 118 518 121 558 b 225 697 118 682 225 697 b 300 685 257 700 285 693 b 349 575 361 654 349 575 b 232 471 338 468 256 468 b 226 464 228 471 225 468 b 260 428 232 447 249 435 b 290 425 269 422 281 421 b 390 578 388 457 390 578 b 225 744 400 756 225 744 b 29 582 31 743 29 582 b 93 390 29 582 17 476 b 136 349 103 378 122 360 b 285 144 136 349 282 232 b 200 31 288 65 250 26 b 126 156 181 32 126 44 b 111 182 126 167 121 176 z "},"T":{"ha":399,"x_min":0,"x_max":0,"o":"m 399 710 b 383 735 396 719 389 729 b 371 742 379 739 375 740 b 54 742 276 750 101 743 b 32 725 44 740 36 735 b 29 676 26 710 26 689 b 36 674 31 674 33 672 b 164 703 67 689 114 699 b 167 11 157 574 136 135 b 246 -1 188 -4 215 -6 b 264 708 222 143 258 629 b 396 706 328 710 382 707 b 399 710 399 706 400 707 z "},"U":{"ha":442,"x_min":0,"x_max":0,"o":"m 301 358 b 285 200 301 358 299 272 b 175 46 268 118 235 43 b 93 354 68 50 93 354 b 119 718 103 521 115 671 b 94 750 121 733 110 747 b 47 747 78 753 58 750 b 38 735 42 746 38 742 b 28 349 35 694 29 528 b 42 172 28 349 25 257 b 176 0 60 85 101 -1 b 392 360 388 3 392 360 b 414 699 399 515 410 650 b 390 739 415 717 406 732 b 331 743 369 747 346 744 b 315 726 322 742 317 735 b 301 358 313 681 303 528 z "},"V":{"ha":439,"x_min":0,"x_max":0,"o":"m 235 275 b 200 46 217 168 200 46 b 165 279 193 72 165 279 b 117 701 143 458 122 647 b 92 736 115 717 106 731 b 33 746 71 746 44 746 b 28 739 29 744 28 742 b 104 265 33 699 69 458 b 201 0 104 265 142 0 b 322 260 271 0 322 260 b 410 719 365 449 403 674 b 404 732 411 725 408 731 b 328 740 389 739 356 751 b 308 718 317 736 310 728 b 235 275 300 664 265 458 z "},"W":{"ha":518,"x_min":0,"x_max":0,"o":"m 122 729 b 36 743 101 743 69 746 b 28 735 31 743 28 739 b 31 436 32 692 31 657 b 161 -3 31 172 63 -8 b 257 321 265 4 257 321 b 343 0 257 321 244 11 b 490 690 467 -14 489 597 b 482 718 492 700 488 711 b 429 743 468 735 449 740 b 421 736 425 744 421 740 b 350 49 419 654 406 18 b 321 501 350 49 318 107 b 321 546 321 513 321 528 b 314 554 321 550 318 554 b 242 551 300 557 269 561 b 221 521 229 546 221 533 b 169 51 222 428 226 35 b 143 688 103 69 138 576 b 122 729 144 703 136 719 z "},"X":{"ha":422,"x_min":0,"x_max":0,"o":"m 408 53 b 239 276 335 96 279 181 b 400 688 303 403 369 554 b 399 706 401 693 401 699 b 369 742 396 717 388 735 b 358 736 364 744 360 742 b 213 344 349 700 304 538 b 131 732 156 510 136 685 b 118 740 131 739 124 743 b 32 646 96 729 51 701 b 31 593 26 629 26 611 b 156 232 43 538 85 378 b 31 29 119 165 78 96 b 31 15 28 25 28 19 b 71 -1 42 1 56 -3 b 88 8 78 -1 83 3 b 185 176 101 31 139 93 b 317 10 222 110 267 51 b 342 3 324 4 333 1 b 410 42 367 6 392 19 b 408 53 414 44 413 51 z "},"Y":{"ha":408,"x_min":0,"x_max":0,"o":"m 394 699 b 390 717 396 704 394 711 b 340 746 383 726 369 740 b 329 738 335 747 329 743 b 210 214 324 689 299 463 b 121 733 143 435 124 689 b 114 739 121 738 118 739 b 33 661 97 733 54 717 b 29 615 28 647 26 631 b 146 157 40 551 79 347 b 154 28 147 104 150 60 b 178 -1 156 15 165 3 b 226 -4 192 -6 208 -6 b 232 4 229 -3 232 0 b 229 161 228 42 228 97 b 394 699 296 328 364 526 z "},"Z":{"ha":439,"x_min":0,"x_max":0,"o":"m 422 18 b 392 53 418 33 407 44 b 365 57 383 58 375 60 b 226 42 319 49 272 43 b 92 50 182 42 136 44 b 228 360 78 144 228 360 b 407 626 281 450 344 547 b 400 714 432 657 418 690 b 346 739 383 733 358 738 b 289 740 326 739 307 740 b 94 728 235 742 150 739 b 89 717 90 726 88 722 b 107 685 93 706 99 693 b 144 672 115 674 131 669 b 282 692 189 682 236 692 b 325 693 296 693 310 693 b 147 408 261 608 199 503 b 36 44 147 408 -8 164 b 93 4 42 32 57 10 b 93 4 93 4 93 4 b 219 -4 135 -4 178 -3 b 418 11 274 -6 361 0 b 422 18 421 13 424 15 z "},"Æ":{"ha":664,"x_min":0,"x_max":0,"o":"m 636 118 b 628 138 633 125 632 132 b 622 139 628 140 624 140 b 415 40 544 33 415 40 b 407 183 415 40 411 103 b 406 213 406 193 406 203 b 558 217 443 213 501 213 b 575 228 565 217 572 221 b 581 250 578 233 581 242 b 575 256 582 253 579 256 b 403 251 553 254 465 251 b 401 328 403 276 401 303 b 419 704 399 458 419 704 b 614 699 460 710 578 701 b 622 708 619 699 624 703 b 615 738 621 722 615 738 b 353 746 610 756 418 749 b 328 724 340 744 331 736 b 321 681 326 713 324 699 b 239 743 300 719 272 744 b 47 138 239 743 82 739 b 33 140 40 139 36 140 b 28 136 31 142 28 139 b 33 115 28 129 31 121 b 44 104 36 110 40 106 b 46 104 46 104 46 104 b 42 25 44 79 43 53 b 64 -3 42 13 50 0 b 81 -3 68 -4 75 -4 b 88 6 85 -1 88 3 b 89 94 88 18 88 50 b 313 93 154 86 246 89 b 313 8 313 65 313 38 b 322 -3 313 3 317 -1 b 383 0 340 -8 364 -8 b 383 1 383 1 383 1 b 631 93 451 0 582 10 b 636 118 636 101 638 110 z m 90 131 b 233 696 97 313 126 629 b 307 271 233 696 290 681 b 310 224 308 254 308 239 b 311 124 310 193 311 160 b 90 131 217 117 139 124 z "},"Œ":{"ha":656,"x_min":0,"x_max":0,"o":"m 626 118 b 619 138 625 125 622 132 b 614 139 618 140 615 140 b 407 40 535 33 407 40 b 396 213 407 40 400 119 b 550 217 435 213 492 213 b 565 228 557 217 563 221 b 572 250 568 233 572 242 b 567 256 572 253 569 256 b 394 251 544 254 457 251 b 393 328 393 276 393 303 b 411 704 390 458 411 704 b 606 699 451 710 569 701 b 614 708 610 699 615 703 b 606 738 611 722 606 738 b 344 746 600 756 410 749 b 319 724 332 744 321 736 b 317 711 318 719 318 715 b 179 742 285 740 240 756 b 44 179 29 710 6 372 b 169 -1 81 0 169 -1 b 311 86 169 -1 247 -10 b 326 17 315 54 321 31 b 346 3 331 8 338 3 b 622 93 393 -1 564 -6 b 626 118 626 101 629 110 z m 167 38 b 69 328 167 38 79 29 b 183 704 61 606 133 696 b 285 599 242 714 269 660 b 294 411 304 525 294 411 b 167 38 263 50 167 38 z "},"ß":{"ha":422,"x_min":0,"x_max":0,"o":"m 228 36 b 210 124 196 40 204 97 b 200 132 211 129 206 135 b 163 111 186 126 172 118 b 146 74 151 103 144 89 b 228 0 154 3 228 0 b 394 222 404 -7 394 222 b 221 460 394 425 221 460 b 335 575 340 476 335 575 b 101 743 332 704 174 736 b 39 690 69 746 40 722 b 28 340 33 615 25 474 b 43 31 31 221 39 93 b 67 -1 44 17 54 4 b 118 -4 82 -6 100 -7 b 129 10 125 -4 129 3 b 124 189 121 68 124 189 l 124 186 b 122 326 124 213 122 294 b 136 685 122 472 136 685 b 269 579 136 685 274 671 b 156 465 267 503 171 474 b 151 458 153 464 151 461 l 151 446 b 163 431 151 439 156 433 b 300 236 196 422 296 383 b 228 36 303 142 275 31 z "},"a":{"ha":476,"x_min":0,"x_max":0,"o":"m 536 379 b 524 388 532 382 528 385 b 515 382 519 389 515 386 b 390 65 507 335 456 67 b 374 499 328 64 364 418 b 357 532 375 513 368 525 b 283 539 333 547 301 543 b 269 522 276 538 271 531 b 264 443 268 507 265 479 b 217 468 243 465 217 468 b 31 219 54 497 31 219 b 118 25 31 219 6 31 b 265 239 197 22 244 158 b 381 19 275 125 306 21 b 544 349 381 19 488 4 b 536 379 547 360 543 371 z m 139 68 b 128 231 139 68 96 61 b 219 426 161 401 207 426 b 261 358 231 428 258 418 b 261 339 261 351 261 346 b 139 68 253 307 194 72 z "},"b":{"ha":365,"x_min":0,"x_max":0,"o":"m 225 499 b 122 424 178 503 143 463 b 140 725 129 558 138 682 b 124 758 142 739 135 751 b 54 765 100 771 71 768 b 43 751 47 764 43 758 b 40 40 38 674 13 201 b 68 10 43 25 53 14 b 108 7 81 6 93 6 b 121 22 115 7 121 14 b 117 65 119 35 118 49 b 186 19 144 19 186 19 b 340 203 308 13 340 203 b 225 499 365 382 315 489 z m 254 240 b 183 57 254 240 232 51 b 115 217 140 61 122 164 b 118 333 115 254 117 293 b 219 457 133 376 169 463 b 254 240 219 457 276 450 z "},"c":{"ha":294,"x_min":0,"x_max":0,"o":"m 213 425 b 221 417 213 421 217 417 b 246 438 232 419 242 426 b 249 454 249 443 249 449 b 229 493 244 471 238 485 b 188 511 213 513 188 511 b 31 304 44 506 31 304 b 151 13 31 304 -4 6 b 285 194 151 13 253 7 b 282 214 286 201 286 208 b 269 232 281 219 276 226 b 261 229 265 235 261 232 b 157 47 253 193 219 50 b 129 260 118 46 129 260 b 193 465 129 260 135 471 b 213 425 193 465 214 463 z "},"d":{"ha":376,"x_min":0,"x_max":0,"o":"m 356 753 b 276 764 332 771 293 767 b 268 753 272 763 268 758 b 254 471 261 661 257 564 b 193 492 235 489 210 490 b 33 297 163 494 53 467 b 164 22 11 111 64 18 b 257 114 210 24 239 67 b 264 7 258 65 261 28 b 299 -32 265 -12 279 -29 b 335 -31 313 -35 326 -32 b 342 -22 339 -31 343 -26 b 371 718 326 225 363 642 b 356 753 371 732 367 744 z m 165 57 b 122 231 165 57 106 50 b 201 457 138 406 179 456 b 253 353 221 457 249 450 b 254 247 253 317 253 281 b 165 57 249 200 228 64 z "},"e":{"ha":294,"x_min":0,"x_max":0,"o":"m 282 204 b 269 222 281 210 276 217 b 261 219 267 225 263 224 b 143 47 251 186 206 46 b 125 226 114 49 119 167 b 250 332 208 221 250 332 b 269 410 260 356 267 386 b 213 528 282 525 213 528 b 39 314 71 533 39 314 b 135 14 39 314 -19 19 b 283 185 135 14 235 0 b 282 204 285 190 285 197 z m 214 474 b 211 349 214 474 256 465 b 128 264 211 349 181 269 b 214 474 132 283 167 481 z "},"f":{"ha":242,"x_min":0,"x_max":0,"o":"m 251 728 b 228 751 247 739 239 747 b 88 663 157 776 114 731 b 58 532 74 624 64 576 b 4 531 32 532 13 531 b -1 525 0 531 -1 528 b 7 500 0 517 3 507 b 22 492 11 496 17 492 b 54 493 32 493 43 493 b 50 410 50 446 50 410 b 61 40 47 267 49 118 b 89 10 64 25 75 13 b 129 7 101 6 115 6 b 142 22 138 7 143 14 b 143 410 132 103 136 263 b 149 492 144 440 146 467 b 214 489 178 490 203 489 b 219 494 217 489 219 492 b 213 517 219 503 215 511 b 197 528 210 524 204 528 b 153 531 182 529 167 531 b 182 647 158 585 168 624 b 249 664 199 672 225 674 b 260 671 254 661 260 664 b 251 728 261 692 256 714 z "},"g":{"ha":374,"x_min":0,"x_max":0,"o":"m 356 133 b 340 135 351 135 346 136 b 329 132 338 135 333 133 b 357 504 356 292 357 461 b 346 524 357 513 353 519 b 269 535 324 539 288 538 b 256 519 261 533 256 528 b 258 472 257 510 258 493 b 217 493 239 490 217 493 b 31 244 54 522 31 244 b 118 51 31 244 6 57 b 254 226 186 47 231 147 b 246 149 253 200 250 174 b 236 92 246 149 242 125 b 128 -11 199 69 160 38 b 129 -178 38 -146 129 -178 b 225 -150 165 -192 199 -175 b 324 99 274 -101 304 -6 b 369 111 347 107 364 110 b 371 113 371 111 371 113 b 356 133 371 125 363 131 z m 139 93 b 128 256 139 93 96 86 b 219 451 161 428 207 451 b 261 392 229 453 256 444 b 261 363 261 382 261 372 b 139 93 250 322 193 97 z m 131 -140 b 142 -46 107 -129 119 -83 b 194 18 163 -12 194 18 b 226 46 204 29 215 38 b 131 -140 206 -44 172 -160 z "},"h":{"ha":354,"x_min":0,"x_max":0,"o":"m 450 379 b 438 388 446 382 442 385 b 429 382 435 389 431 386 b 329 78 422 342 382 131 b 314 235 313 67 315 139 b 222 467 311 342 301 460 b 119 358 179 471 143 414 b 140 725 126 517 138 675 b 124 758 142 739 135 751 b 54 765 100 771 71 768 b 43 751 47 764 43 758 b 40 40 38 674 13 201 b 68 10 43 25 53 14 b 108 7 81 6 93 6 b 121 22 115 7 121 14 b 115 243 114 72 114 153 b 203 407 129 307 158 401 b 219 236 203 407 222 390 b 294 19 219 236 210 18 b 460 349 294 19 403 4 b 450 379 461 360 458 371 z "},"i":{"ha":190,"x_min":0,"x_max":0,"o":"m 147 436 b 118 483 149 456 138 476 b 61 490 99 490 76 490 b 46 474 53 489 47 482 b 69 63 46 474 31 172 b 136 29 81 29 111 22 b 143 39 142 29 144 35 b 139 89 142 47 140 60 b 147 436 135 176 135 276 z m 96 508 b 146 514 144 497 146 514 b 61 540 157 550 69 563 b 96 508 53 517 96 508 z "},"j":{"ha":175,"x_min":0,"x_max":0,"o":"m 171 164 b 151 174 167 172 158 174 b 143 172 149 174 146 174 b 128 164 138 169 133 167 b 135 447 138 288 136 411 b 124 471 135 456 131 465 b 44 489 100 492 63 492 b 33 476 38 489 32 483 b 42 81 36 429 49 240 b -29 -78 1 28 -24 -35 b 24 -146 -36 -151 24 -146 b 125 126 85 -147 113 -15 b 169 160 139 139 154 150 b 171 164 171 161 172 163 z m 7 -100 b 38 13 7 -100 -21 -86 b 7 -100 33 -31 25 -90 z m 82 508 b 132 514 129 497 132 514 b 46 540 142 550 54 563 b 82 508 38 517 82 508 z "},"k":{"ha":294,"x_min":0,"x_max":0,"o":"m 276 88 b 183 219 215 94 183 219 b 232 514 344 332 310 499 b 122 415 186 522 147 464 b 144 718 131 558 142 679 b 131 753 146 732 140 744 b 51 764 107 771 68 767 b 43 753 47 763 43 758 b 38 7 19 453 28 97 b 74 -32 40 -12 54 -29 b 110 -31 88 -35 101 -32 b 117 -22 114 -31 117 -26 b 114 225 113 50 113 136 b 219 38 121 165 143 31 b 281 79 240 40 269 60 b 276 88 282 82 281 88 z m 115 254 b 118 319 117 276 117 299 b 217 481 132 367 171 478 b 115 254 217 481 261 424 z "},"l":{"ha":172,"x_min":0,"x_max":0,"o":"m 51 764 b 43 753 47 763 43 758 b 38 7 19 453 28 97 b 74 -32 40 -12 54 -29 b 110 -31 88 -35 101 -32 b 117 -22 114 -31 117 -26 b 144 718 101 225 138 642 b 131 753 146 732 140 744 b 51 764 107 771 68 767 z "},"m":{"ha":544,"x_min":0,"x_max":0,"o":"m 517 11 b 510 415 507 74 515 328 b 382 503 501 532 382 503 b 315 250 333 488 319 338 b 224 467 313 468 224 467 b 125 367 174 471 143 422 b 129 461 126 400 128 431 b 89 513 131 486 114 508 b 39 507 71 515 51 514 b 32 496 35 504 32 500 b 43 28 25 343 26 119 b 61 4 44 17 51 8 b 118 1 78 -1 99 -1 b 126 11 124 3 126 7 b 119 165 121 47 119 101 b 204 407 128 238 151 400 b 239 132 204 407 243 390 b 246 121 238 126 242 122 b 328 124 272 113 304 111 b 346 154 338 131 344 142 b 396 450 357 463 396 450 b 419 24 432 450 411 60 b 507 -3 436 -11 483 -7 b 517 11 514 -1 518 4 z "},"n":{"ha":388,"x_min":0,"x_max":0,"o":"m 360 21 b 239 493 339 97 396 500 b 124 346 190 490 150 414 b 131 488 125 394 128 442 b 117 513 131 497 126 507 b 39 517 93 526 57 526 b 32 506 35 514 32 510 b 43 39 25 350 26 126 b 53 28 44 35 47 29 b 117 21 71 18 93 17 b 125 31 122 21 126 26 b 121 96 124 49 122 71 b 236 436 139 263 203 438 b 263 139 271 433 260 300 b 268 22 263 67 267 35 b 275 11 269 18 271 14 b 351 6 303 -8 335 -1 b 360 21 358 8 361 14 z "},"o":{"ha":374,"x_min":0,"x_max":0,"o":"m 364 218 b 331 211 353 215 342 213 b 325 394 342 283 336 358 b 199 525 325 394 297 519 b 122 442 154 526 129 492 b 100 443 110 444 100 443 b 25 243 100 443 39 431 b 169 15 25 243 10 13 b 324 175 260 17 304 92 b 344 179 332 176 339 178 b 361 193 351 182 357 186 b 368 215 364 199 367 207 b 364 218 368 218 367 219 z m 200 479 b 279 360 260 481 279 360 b 281 213 288 307 286 257 b 200 290 247 221 218 244 b 175 396 189 319 178 371 b 200 479 165 481 200 479 z m 172 46 b 122 239 110 47 122 239 b 133 321 125 272 129 299 b 165 250 140 296 151 272 b 272 175 197 200 238 181 b 172 46 253 97 210 44 z "},"p":{"ha":383,"x_min":0,"x_max":0,"o":"m 235 506 b 136 439 189 510 157 475 b 140 490 138 460 139 478 b 115 526 142 507 131 522 b 54 524 93 533 67 528 b 43 511 47 522 44 517 b 42 -149 39 443 13 -12 b 51 -162 43 -154 46 -160 b 114 -171 69 -172 96 -175 b 121 -161 118 -169 121 -165 b 117 93 113 -108 113 -11 b 196 26 142 26 196 26 b 349 210 317 19 349 210 b 235 506 375 389 324 496 z m 263 249 b 193 64 263 249 240 58 b 122 238 146 69 128 192 b 128 322 125 267 126 296 b 229 464 136 353 169 469 b 263 249 229 464 285 458 z "},"q":{"ha":379,"x_min":0,"x_max":0,"o":"m 342 526 b 279 524 319 533 293 528 b 269 511 274 522 269 517 b 267 465 268 501 268 486 b 217 493 244 490 217 493 b 31 244 54 522 31 244 b 118 51 31 244 6 57 b 256 229 186 47 232 150 b 267 -149 251 85 251 -76 b 278 -162 268 -154 272 -160 b 340 -171 294 -172 321 -175 b 346 -161 344 -169 347 -165 b 365 490 326 -26 357 397 b 342 526 367 507 357 522 z m 139 93 b 128 256 139 93 96 86 b 219 451 161 428 207 451 b 261 371 231 453 263 442 b 261 364 261 369 261 367 b 139 93 253 331 193 97 z "},"r":{"ha":268,"x_min":0,"x_max":0,"o":"m 219 469 b 119 365 168 474 138 422 b 124 467 121 400 122 435 b 93 511 125 486 113 506 b 40 508 75 515 54 515 b 32 494 35 506 32 500 b 42 32 25 344 26 126 b 68 3 44 17 54 6 b 111 1 81 -1 96 0 b 119 14 117 3 121 8 b 114 150 117 46 114 94 b 200 410 121 211 149 422 b 218 343 217 406 218 363 b 228 336 218 339 222 335 b 272 365 250 342 264 356 b 278 385 276 371 278 378 b 219 469 276 467 219 469 z "},"s":{"ha":317,"x_min":0,"x_max":0,"o":"m 296 389 b 160 532 301 547 160 532 b 28 379 22 529 28 379 b 133 203 26 289 133 203 b 196 106 138 199 194 153 b 149 39 199 33 149 39 b 76 133 89 40 78 113 b 69 138 75 136 72 139 b 50 124 63 135 56 129 b 43 96 44 115 42 106 b 149 0 53 3 149 0 b 271 94 263 -6 271 94 b 186 267 275 158 253 192 b 119 394 119 342 119 394 b 171 492 113 482 171 492 b 232 469 196 497 221 485 b 251 378 260 435 251 378 b 219 311 251 378 250 347 b 221 304 217 310 218 304 b 240 300 226 303 233 301 b 267 311 250 300 261 304 b 296 389 278 325 294 351 z "},"t":{"ha":196,"x_min":0,"x_max":0,"o":"m 253 604 b 240 611 250 608 246 611 b 147 615 210 614 178 615 b 157 728 151 668 156 707 b 143 767 158 742 153 757 b 67 788 119 786 85 788 b 54 776 60 788 56 782 b 46 617 51 726 49 672 b -76 615 -17 617 -62 615 b -79 611 -78 615 -79 613 b -54 576 -76 597 -65 581 b -50 576 -53 576 -51 576 b 44 578 -22 578 10 578 b 49 -26 36 318 40 31 b 54 -39 49 -31 50 -35 b 114 -58 71 -58 99 -60 b 125 -47 121 -58 125 -53 b 144 576 114 129 131 401 b 258 574 199 575 244 574 b 263 578 261 574 263 575 b 253 604 263 589 257 599 z "},"u":{"ha":478,"x_min":0,"x_max":0,"o":"m 575 379 b 564 388 572 382 568 385 b 556 382 560 389 556 386 b 431 65 547 335 496 67 b 406 469 368 64 397 394 b 389 513 407 486 401 501 b 336 539 374 525 353 533 b 310 519 324 542 310 533 b 303 418 307 497 304 461 b 151 47 276 254 226 25 b 139 447 96 64 128 361 b 110 499 140 468 129 490 b 60 511 93 507 74 510 b 43 497 51 511 44 506 b 151 0 32 417 -17 19 b 307 235 228 -8 278 114 b 421 19 318 122 349 22 b 585 349 421 19 528 4 b 575 379 588 360 583 371 z "},"v":{"ha":318,"x_min":0,"x_max":0,"o":"m 313 253 b 281 258 300 253 290 254 b 261 531 290 328 311 524 b 178 415 261 531 200 549 b 231 242 161 324 190 268 b 174 74 210 147 186 65 b 119 501 125 107 119 443 b 110 508 119 506 115 510 b 46 482 79 506 58 493 b 28 443 35 472 28 458 b 147 7 22 54 147 7 b 276 225 147 7 240 -42 b 285 224 279 224 282 224 b 297 226 289 224 293 224 b 314 250 304 231 313 239 b 313 253 314 251 314 251 z m 215 336 b 250 493 203 414 235 493 b 263 447 265 493 263 447 b 239 286 258 406 250 346 b 215 336 219 310 215 336 z "},"w":{"ha":440,"x_min":0,"x_max":0,"o":"m 436 246 b 403 254 424 247 413 250 b 364 529 407 343 410 522 b 288 414 364 529 301 547 b 349 246 278 328 311 274 b 299 79 335 156 314 79 b 268 340 253 81 271 310 b 219 376 267 360 239 371 b 204 363 211 378 204 371 b 158 93 199 88 158 93 b 133 451 118 106 129 374 b 115 490 135 467 128 482 b 38 511 93 508 67 514 b 29 501 33 510 31 506 b 115 18 25 400 19 42 b 182 40 115 18 158 3 b 215 171 204 75 217 140 b 275 7 215 171 225 33 b 400 206 275 7 382 -71 b 401 224 400 206 400 213 b 408 222 404 222 406 222 b 439 240 419 221 435 229 b 436 246 440 243 439 246 z m 329 333 b 354 492 310 408 339 492 b 369 446 371 492 369 446 b 356 288 369 403 364 344 b 329 333 336 310 329 333 z "},"x":{"ha":329,"x_min":0,"x_max":0,"o":"m 332 40 b 206 188 278 67 236 124 b 328 486 251 271 300 375 b 322 517 331 496 328 508 b 306 531 318 522 313 526 b 294 525 300 532 296 529 b 179 247 285 494 246 375 b 114 525 135 367 118 493 b 106 531 114 529 110 532 b 29 450 88 524 42 500 b 28 432 28 444 28 438 b 122 147 33 396 58 260 b 32 28 94 104 65 64 b 32 15 29 24 29 18 b 57 3 39 8 47 4 b 90 15 69 0 83 6 b 151 100 103 32 125 61 b 256 8 179 61 214 29 b 294 4 267 3 281 1 b 335 26 308 8 322 17 b 332 40 338 31 338 38 z "},"y":{"ha":417,"x_min":0,"x_max":0,"o":"m 393 133 b 378 135 388 135 382 136 b 367 132 375 135 371 133 b 394 504 392 292 394 461 b 383 524 394 513 390 519 b 306 535 360 539 325 538 b 293 519 299 533 293 528 b 293 518 293 519 293 518 b 151 132 275 379 238 111 b 144 451 97 146 132 378 b 119 499 147 471 138 490 b 57 511 99 508 72 511 b 43 500 50 511 44 507 b 151 93 32 435 -17 108 b 294 271 224 86 268 176 b 282 149 293 229 289 188 b 272 92 282 149 279 125 b 164 -11 236 69 196 38 b 167 -178 74 -146 167 -178 b 263 -150 201 -192 236 -175 b 361 99 310 -101 342 -6 b 407 111 385 107 401 110 b 408 113 407 111 408 113 b 393 133 408 125 400 131 z m 167 -140 b 179 -46 144 -129 156 -83 b 231 18 199 -12 231 18 b 263 46 242 29 253 38 b 167 -140 243 -44 208 -160 z "},"z":{"ha":375,"x_min":0,"x_max":0,"o":"m 357 194 b 347 196 354 196 350 197 b 328 193 340 196 333 194 b 126 350 304 351 126 350 b 294 458 193 363 288 392 b 57 535 304 544 122 539 b 18 510 40 533 26 524 b 0 444 10 494 1 474 b 13 433 0 438 6 432 b 240 453 64 444 243 482 b 26 385 238 422 71 393 b 18 372 21 385 17 378 b 47 308 21 357 29 328 b 69 297 53 301 61 299 b 233 161 104 296 219 279 b 49 -15 151 119 76 51 b 78 -144 8 -112 78 -144 b 331 157 186 -192 332 -29 b 376 168 356 165 371 167 b 378 169 378 168 378 168 b 357 194 376 185 364 192 z m 83 -101 b 129 36 26 -83 129 36 b 224 114 156 69 186 94 b 235 119 228 115 231 117 b 83 -101 226 -39 133 -118 z "},"æ":{"ha":546,"x_min":0,"x_max":0,"o":"m 517 204 b 504 222 514 210 510 217 b 496 219 501 225 496 224 b 378 47 485 186 440 46 b 358 226 349 49 354 167 b 483 332 443 221 483 332 b 504 410 493 356 501 386 b 447 528 517 525 447 528 b 374 507 418 529 393 521 b 357 532 372 518 365 528 b 283 539 333 547 301 543 b 269 522 276 538 271 531 b 264 443 268 507 265 479 b 217 468 243 465 217 468 b 31 219 54 497 31 219 b 118 25 31 219 6 31 b 263 229 194 22 240 147 b 368 14 258 142 268 17 b 517 185 368 14 469 0 b 517 204 519 190 518 197 z m 139 68 b 128 231 139 68 96 61 b 219 426 161 401 207 426 b 261 358 231 428 258 418 b 261 339 261 351 261 346 b 139 68 253 307 194 72 z m 449 474 b 444 349 449 474 489 465 b 363 264 444 349 415 269 b 449 474 365 283 401 481 z "},"œ":{"ha":569,"x_min":0,"x_max":0,"o":"m 539 204 b 526 222 538 210 533 217 b 518 219 524 225 519 224 b 400 47 508 186 463 46 b 382 226 371 49 376 167 b 507 332 465 221 507 332 b 526 410 517 356 524 386 b 469 528 539 525 469 528 b 324 410 393 532 349 468 b 201 525 313 443 279 521 b 125 442 157 526 132 492 b 103 443 113 444 103 443 b 28 243 103 443 42 431 b 172 15 28 243 13 13 b 297 96 232 17 271 50 b 392 14 311 50 339 15 b 540 185 392 14 492 0 b 539 204 542 190 542 197 z m 471 474 b 468 349 471 474 511 465 b 385 264 468 349 438 269 b 471 474 389 283 424 481 z m 175 46 b 125 239 113 47 125 239 b 136 321 128 272 132 299 b 168 250 143 296 154 272 b 275 175 200 200 240 181 b 175 46 256 97 213 44 z m 203 290 b 178 396 192 319 181 371 b 203 479 168 481 203 479 b 282 360 263 481 282 360 b 283 213 290 307 289 257 b 203 290 250 221 221 244 z "},"!":{"ha":129,"x_min":0,"x_max":0,"o":"m 61 81 b 28 44 43 81 28 64 b 61 8 28 24 43 8 b 93 44 79 8 93 24 b 61 81 93 64 79 81 z m 101 674 b 97 711 101 689 100 701 b 68 742 92 732 82 740 b 47 707 58 742 51 724 b 42 671 43 689 42 671 b 39 647 40 664 39 656 b 36 619 38 639 38 629 b 33 589 35 610 35 600 b 33 572 33 583 33 578 b 32 556 33 567 32 561 b 29 407 31 510 29 457 b 32 267 29 357 31 307 b 33 213 32 246 33 228 b 35 192 35 204 35 197 b 36 175 36 185 36 179 b 54 115 40 139 47 122 b 65 110 60 108 65 110 b 89 181 75 111 83 139 b 97 335 93 221 96 276 b 99 422 97 364 99 393 b 99 504 99 451 99 479 b 100 572 99 531 99 553 b 100 599 100 582 100 592 b 101 619 100 607 100 614 b 101 649 101 629 101 639 b 101 661 101 653 101 657 b 101 674 101 665 101 669 z "},"?":{"ha":354,"x_min":0,"x_max":0,"o":"m 140 114 b 156 122 146 107 157 113 b 186 226 153 150 167 190 b 326 568 221 292 328 453 b 151 747 325 681 242 753 b 28 574 151 747 22 731 b 128 454 32 483 101 463 b 154 461 136 451 146 453 b 186 528 172 478 185 499 b 178 536 186 533 182 538 b 131 533 168 532 150 528 b 78 610 107 540 81 564 b 150 721 71 722 150 721 b 250 611 240 729 250 611 b 138 267 261 478 192 411 b 140 114 113 197 117 142 z m 154 81 b 122 44 136 81 122 64 b 154 8 122 24 136 8 b 188 44 172 8 188 24 b 154 81 188 64 172 81 z "},"¡":{"ha":128,"x_min":0,"x_max":0,"o":"m 71 486 b 43 519 54 488 42 501 b 72 549 44 536 57 550 b 100 517 89 549 101 535 b 71 486 99 500 86 486 z m 85 -19 b 85 -8 85 -17 85 -12 b 85 18 85 0 85 8 b 85 35 85 22 85 28 b 86 57 85 42 85 49 b 88 117 86 75 86 94 b 90 189 89 139 89 164 b 93 264 92 214 92 239 b 90 399 93 314 93 363 b 74 460 88 435 82 458 b 63 457 74 460 68 463 b 46 406 57 450 51 436 b 44 392 46 401 44 396 b 42 372 43 386 43 379 b 39 325 40 360 39 343 b 31 204 36 290 33 247 b 28 75 29 160 28 115 b 28 60 28 69 28 65 b 28 46 28 56 28 50 b 29 18 28 36 28 28 b 29 -6 29 10 29 3 b 32 -26 31 -12 31 -19 b 35 -57 32 -26 32 -42 b 51 -87 39 -72 43 -87 b 78 -62 64 -87 72 -81 b 83 -31 81 -54 83 -43 b 85 -19 83 -26 85 -24 z "},"¿":{"ha":315,"x_min":0,"x_max":0,"o":"m 206 453 b 192 447 200 460 190 456 b 161 357 193 424 179 388 b 28 65 129 301 31 165 b 175 -96 25 -33 96 -99 b 288 51 175 -96 288 -86 b 204 158 288 131 228 150 b 182 153 197 161 189 160 b 151 96 165 139 154 121 b 158 89 151 92 156 88 b 200 89 167 92 183 94 b 243 21 219 83 242 61 b 175 -74 244 -76 175 -74 b 93 25 97 -78 93 25 b 201 321 88 140 150 197 b 206 453 226 381 225 429 z m 194 483 b 224 514 210 483 222 497 b 196 546 224 532 213 546 b 167 515 181 547 167 533 b 194 483 165 499 178 485 z "},"/":{"ha":272,"x_min":0,"x_max":0,"o":"m 229 763 b 203 725 222 765 211 746 b 186 685 193 706 186 685 b 178 657 183 676 181 667 b 167 624 174 647 171 636 b 156 588 164 613 160 600 b 150 568 154 581 151 575 b 144 547 149 561 146 554 b 97 369 129 493 113 431 b 57 201 82 310 68 250 b 43 135 51 176 47 154 b 38 110 40 125 39 117 b 33 90 36 101 35 96 b 31 14 26 44 26 24 b 38 6 33 4 38 6 b 78 85 47 6 61 36 b 132 268 94 133 113 200 b 158 374 140 303 150 339 b 183 472 167 408 176 442 b 204 554 192 503 199 531 b 214 585 208 565 211 576 b 219 608 215 594 218 603 b 229 644 224 621 226 633 b 233 660 231 650 232 656 b 238 675 235 665 236 669 b 244 721 242 693 243 708 b 229 763 246 746 242 760 z "},"\\":{"ha":272,"x_min":0,"x_max":0,"o":"m 229 7 b 244 49 242 11 246 24 b 238 96 243 61 242 76 b 233 110 236 100 235 104 b 229 125 232 115 231 119 b 219 161 226 136 224 149 b 214 185 218 167 215 175 b 204 215 211 193 208 204 b 183 299 199 239 192 267 b 158 397 176 329 167 363 b 132 501 150 431 140 467 b 78 685 113 571 94 636 b 38 764 61 733 47 765 b 31 756 38 764 33 765 b 33 681 26 746 26 725 b 38 660 35 675 36 668 b 43 635 39 653 40 644 b 57 569 47 617 51 593 b 97 400 68 519 82 461 b 144 222 113 339 129 278 b 150 201 146 215 149 208 b 156 182 151 194 154 189 b 167 146 160 169 164 157 b 178 113 171 135 174 124 b 186 86 181 103 183 94 b 203 44 186 86 193 65 b 229 7 211 24 222 4 z "},"[":{"ha":232,"x_min":0,"x_max":0,"o":"m 124 707 b 131 708 126 707 128 708 b 143 711 135 710 139 710 b 156 713 147 711 151 713 b 190 722 171 715 183 718 b 204 738 199 726 203 732 b 186 749 204 742 197 746 b 142 756 174 751 158 754 b 117 756 135 756 126 756 b 114 756 117 756 115 756 l 113 756 l 113 754 b 110 754 111 754 111 754 b 101 753 107 754 104 754 b 97 753 100 753 99 753 b 93 751 96 751 94 751 b 88 749 92 750 89 749 b 82 744 85 747 83 746 b 78 740 81 743 78 742 b 74 738 76 739 75 739 b 71 733 72 736 72 735 b 67 729 69 732 68 731 b 67 728 67 728 67 728 b 57 710 63 722 60 715 b 50 690 54 703 53 697 b 43 650 47 678 46 664 b 42 628 43 643 42 635 b 42 617 42 624 42 621 b 40 607 40 614 40 610 b 38 560 39 592 38 575 b 35 535 36 551 36 543 b 35 522 35 531 35 526 b 33 510 35 518 33 514 b 32 457 33 493 32 475 b 31 404 31 440 31 422 b 29 351 29 388 29 369 b 28 300 29 333 28 317 b 28 274 28 290 28 282 b 28 249 28 265 28 257 b 28 224 28 240 28 232 b 28 200 28 215 28 207 b 29 176 29 192 29 183 b 31 154 29 169 29 161 b 32 114 31 140 31 126 b 32 96 32 108 32 101 b 33 88 32 93 32 90 b 33 83 33 86 33 85 b 33 78 33 81 33 79 b 38 57 33 71 35 64 b 47 38 40 50 43 43 b 63 22 51 32 57 26 b 79 14 68 19 74 17 b 107 6 89 10 99 7 b 129 4 115 4 122 4 b 161 6 142 4 153 6 b 193 14 178 8 188 11 b 201 24 206 19 201 24 b 192 31 201 26 197 28 b 168 36 186 32 178 33 b 133 42 157 38 146 39 b 115 47 126 43 121 44 b 108 50 113 49 110 49 b 101 54 106 51 104 53 b 96 65 99 57 97 61 l 96 65 l 94 67 b 94 68 94 68 94 68 b 94 71 94 69 94 69 b 94 72 94 71 94 72 b 93 76 94 74 93 75 b 93 79 93 78 93 79 b 94 82 93 81 94 81 b 94 107 94 90 94 99 b 96 135 96 115 96 125 b 96 163 96 143 96 153 b 97 192 97 172 97 182 b 97 221 97 201 97 211 b 99 250 97 231 97 240 b 101 372 99 290 100 332 b 103 432 101 392 103 413 b 104 488 104 450 104 469 b 108 582 106 522 107 556 b 110 601 108 589 110 596 b 110 611 110 606 110 608 b 110 619 110 614 110 617 b 111 646 111 631 111 639 b 117 685 113 661 115 674 b 121 699 118 689 119 694 b 121 700 121 699 121 699 b 122 701 122 700 122 700 b 124 704 122 701 122 703 l 124 704 l 124 704 l 124 704 l 124 704 l 124 704 l 124 706 b 124 707 124 706 124 706 b 124 707 124 707 124 707 z "},"]":{"ha":232,"x_min":0,"x_max":0,"o":"m 204 536 b 203 560 204 543 203 551 b 203 583 203 568 203 575 b 201 604 203 590 201 597 b 200 644 201 619 200 632 b 199 664 200 651 200 657 b 199 672 199 667 199 669 b 199 676 199 674 199 675 b 199 682 199 678 199 681 b 194 703 197 689 196 696 b 185 721 192 708 189 715 b 169 736 179 728 175 732 b 153 746 164 740 158 743 b 125 753 143 750 133 751 b 103 756 117 754 110 754 b 71 753 90 756 79 754 b 39 744 54 750 44 747 b 31 735 26 740 31 735 b 40 729 31 733 35 731 b 64 724 46 728 54 725 b 99 718 74 722 86 719 b 117 713 104 717 111 714 b 124 708 119 711 122 710 b 129 704 126 707 128 706 b 136 694 133 701 135 699 l 136 693 l 136 693 b 138 690 136 692 138 692 b 138 689 138 690 138 689 b 138 686 138 688 138 688 b 138 682 138 685 138 683 b 138 679 138 682 138 681 b 138 678 138 679 138 678 b 136 653 138 669 138 661 b 136 625 136 643 136 635 b 135 597 136 615 135 607 b 135 568 135 588 135 578 b 135 539 135 558 135 549 b 133 508 133 529 133 518 b 131 388 132 468 131 426 b 129 328 129 367 129 347 b 126 272 128 308 128 290 b 124 176 126 236 125 204 b 122 157 122 169 122 164 b 122 147 122 154 122 151 b 121 139 122 144 121 142 b 119 113 121 129 121 119 b 114 75 118 99 117 86 b 111 61 114 69 113 65 b 110 60 111 61 110 60 b 110 58 110 58 110 58 b 108 56 110 57 108 57 l 108 56 l 108 54 l 108 54 l 108 54 l 108 54 l 108 54 b 108 53 108 54 108 53 b 107 53 108 53 108 53 b 101 51 106 51 104 51 b 89 49 97 50 93 49 b 76 46 85 47 81 47 b 40 36 61 43 49 40 b 28 22 32 32 28 28 b 46 11 28 18 35 14 b 89 4 57 7 74 6 b 114 4 97 4 106 3 b 118 4 115 4 117 4 l 118 4 l 119 4 b 122 4 121 4 121 4 b 131 6 125 6 128 6 b 135 7 132 7 133 7 b 138 8 135 7 136 8 b 144 11 140 10 143 10 b 150 15 146 13 149 14 b 154 18 151 15 153 17 b 158 22 156 19 157 21 b 161 25 160 24 160 24 b 164 31 163 28 164 29 b 165 32 165 31 165 32 b 175 50 169 38 172 43 b 181 69 178 56 179 63 b 188 110 185 82 186 96 b 190 132 189 117 189 124 b 190 142 190 135 190 139 b 192 153 190 146 192 150 b 194 200 193 168 193 183 b 196 225 196 208 196 217 b 197 238 197 229 197 233 b 197 250 197 242 197 246 b 200 301 199 267 199 283 b 201 354 200 319 201 336 b 203 407 201 372 203 390 b 204 460 203 425 203 443 b 204 486 204 468 204 476 b 204 511 204 494 204 503 b 204 536 204 519 204 528 z "},"@":{"ha":429,"x_min":0,"x_max":0,"o":"m 242 425 b 31 256 107 428 42 335 b 196 39 31 256 -8 64 b 372 126 196 39 315 24 b 372 140 375 131 376 138 b 360 135 368 143 363 139 b 203 65 338 101 289 53 b 101 244 203 65 79 74 b 244 399 101 244 118 396 b 360 293 244 399 356 400 b 285 171 363 210 317 181 b 271 168 279 169 274 168 b 269 168 271 168 271 168 b 275 203 260 168 267 188 b 282 218 276 207 279 214 b 283 219 283 218 283 219 b 283 219 283 219 283 219 b 283 219 283 219 283 219 b 293 269 292 233 315 265 b 272 319 307 314 272 319 b 183 293 219 333 183 293 b 154 254 172 283 163 269 b 139 218 150 247 142 232 b 136 189 136 210 135 200 b 174 154 139 172 150 156 b 240 201 215 154 236 192 b 253 153 224 158 253 153 b 261 153 256 153 258 153 l 261 153 b 388 243 261 153 346 156 b 242 425 431 331 367 424 z m 238 229 b 236 229 238 229 238 229 b 236 228 236 229 236 228 b 233 222 235 225 235 224 b 186 175 226 208 206 175 b 193 229 186 175 164 178 b 268 297 222 282 250 301 b 271 265 268 297 281 296 b 238 229 256 257 243 240 z "},"¢":{"ha":324,"x_min":0,"x_max":0,"o":"m 289 390 b 279 414 288 399 283 406 b 263 435 275 421 269 429 b 240 451 256 442 247 447 b 229 456 236 453 232 454 b 225 457 228 456 226 457 b 222 458 224 457 224 457 b 221 458 222 458 221 458 b 217 460 219 458 218 458 b 215 460 217 460 215 460 b 213 460 214 460 214 460 b 207 461 211 460 208 461 b 200 461 204 461 201 461 b 197 461 199 461 199 461 b 194 460 196 461 196 461 b 193 460 194 460 194 460 b 182 475 190 471 188 475 b 175 460 179 475 176 468 b 175 460 175 460 175 460 b 163 458 171 458 167 458 b 158 457 161 458 160 457 b 154 457 157 457 156 457 b 151 456 153 456 151 456 b 118 443 140 453 129 449 b 89 421 107 438 97 429 b 76 407 85 417 81 413 b 67 393 72 403 69 397 b 50 361 60 382 54 372 b 33 293 42 339 36 317 b 28 224 31 269 29 246 b 28 207 28 218 28 213 b 28 189 28 201 28 196 b 29 156 28 178 29 167 b 35 122 31 144 33 133 b 44 92 38 111 40 101 b 58 64 49 82 53 72 b 78 39 64 54 71 47 b 82 35 79 38 81 36 b 88 29 85 33 86 32 b 93 25 90 28 92 26 b 99 22 96 24 97 24 b 110 15 103 19 106 17 b 114 13 111 15 113 14 b 119 11 117 13 118 11 b 124 8 121 10 122 10 b 128 7 125 8 126 8 b 133 6 129 7 132 7 b 135 6 133 6 135 6 b 138 4 136 6 136 4 b 146 3 140 4 143 3 b 153 1 149 3 150 1 b 160 0 156 1 158 1 b 167 0 163 0 165 0 b 176 0 171 0 174 0 b 183 -10 181 -12 183 -10 b 189 0 186 -10 188 -6 b 200 0 192 0 196 0 b 207 0 203 0 204 0 b 213 0 208 0 211 0 b 228 4 218 1 222 3 b 254 19 238 7 247 13 b 272 40 261 26 268 33 b 283 60 276 47 281 54 b 293 89 288 74 290 83 b 293 113 296 99 296 107 b 275 121 290 117 285 119 b 263 114 269 121 265 118 b 258 108 261 113 260 110 b 257 106 258 107 257 106 b 246 81 254 100 250 90 b 243 74 246 79 244 76 b 242 69 242 72 242 71 b 239 65 240 68 240 67 b 231 51 236 61 233 56 b 221 39 228 47 224 43 b 210 32 218 36 214 33 b 200 26 207 29 203 28 b 199 26 200 26 199 26 b 193 28 196 26 194 28 b 199 382 200 117 197 329 b 199 404 199 390 199 397 b 197 426 199 413 199 419 b 214 426 203 428 208 428 b 214 426 214 426 214 426 b 214 426 214 426 214 426 b 217 425 215 426 215 425 b 219 422 218 424 218 424 b 231 411 224 419 228 417 b 242 397 235 407 238 403 b 249 381 244 392 247 386 b 256 365 251 375 253 371 b 264 344 258 356 261 349 b 278 331 268 335 274 332 b 285 329 282 329 285 329 b 296 349 292 331 294 338 b 294 368 296 354 296 361 b 289 390 294 375 292 383 z m 169 38 b 150 50 163 42 157 46 b 133 69 144 56 138 61 b 119 94 128 76 124 85 b 113 126 117 104 114 115 b 108 161 110 138 108 149 b 108 197 108 172 108 185 b 110 236 108 211 110 224 b 117 306 111 261 113 285 b 132 358 119 326 125 344 b 150 386 138 372 144 381 b 172 410 151 388 160 399 b 171 376 171 400 171 389 b 172 39 168 271 168 88 b 172 38 172 39 172 38 b 169 38 171 38 171 38 z "},"$":{"ha":356,"x_min":0,"x_max":0,"o":"m 236 392 b 208 426 226 404 217 415 b 210 615 208 510 208 583 b 208 700 210 650 208 678 b 228 697 214 700 221 699 b 254 678 238 693 246 686 b 258 674 256 676 257 675 b 260 671 258 672 258 672 b 269 644 265 663 268 653 b 268 572 275 615 263 589 b 285 560 271 567 275 561 b 313 599 306 554 311 579 b 313 618 313 606 313 613 b 311 633 313 625 311 631 b 311 639 311 635 311 638 b 301 672 308 650 306 663 b 285 699 296 682 290 692 b 276 708 282 703 279 706 b 269 715 274 711 271 713 b 267 717 268 715 267 717 b 264 718 265 718 265 718 b 263 719 263 719 263 719 b 260 721 261 721 261 721 b 257 722 260 722 258 722 b 253 725 256 724 254 725 b 247 728 251 726 250 728 b 244 729 247 729 246 729 b 242 731 244 729 243 731 b 239 732 242 731 240 731 b 236 732 239 732 238 732 b 233 733 236 732 235 733 l 232 733 l 231 733 b 224 735 228 735 226 735 b 218 736 222 736 219 736 l 218 736 l 217 736 l 215 736 b 213 736 214 736 214 736 b 208 738 211 738 210 738 b 204 738 207 738 206 738 b 193 765 203 757 199 765 b 186 738 190 765 188 753 b 181 736 185 736 182 736 b 143 724 168 735 156 731 b 110 696 131 717 119 707 b 96 672 104 689 100 681 b 71 554 82 649 68 610 b 82 490 71 529 75 508 b 153 376 86 478 101 436 b 179 343 163 365 171 354 b 182 69 179 224 181 113 b 183 54 182 64 183 60 b 174 53 181 54 176 53 b 160 54 169 53 164 53 b 160 54 160 54 160 54 b 156 54 158 54 157 54 l 157 53 b 138 58 150 54 144 56 b 115 69 129 61 122 64 b 97 85 108 74 103 79 b 83 103 92 90 88 97 b 74 124 79 110 76 117 b 64 161 68 136 65 149 b 61 178 63 167 61 172 b 60 192 61 182 61 188 l 60 192 b 76 257 61 232 72 253 b 76 258 76 257 76 258 l 76 258 l 76 258 b 119 325 99 288 133 297 b 88 328 113 339 100 336 b 81 322 86 326 83 325 b 64 304 76 318 69 313 b 64 304 64 304 64 304 l 64 304 b 53 288 60 299 57 293 b 40 260 49 279 44 269 b 32 225 38 249 33 238 b 29 206 31 219 29 213 b 28 185 28 199 28 192 b 32 140 28 171 29 156 b 47 93 35 125 39 108 b 81 49 54 76 65 61 b 104 31 88 42 96 36 b 133 19 114 26 124 22 b 164 14 143 17 153 14 b 186 13 171 13 179 13 b 194 -10 190 -15 194 -10 b 200 14 197 -10 199 -1 b 226 18 208 14 218 17 b 257 32 238 21 247 26 b 271 42 263 35 267 38 b 285 53 276 44 281 49 b 304 81 292 61 299 71 b 325 140 315 99 321 119 b 328 161 326 147 326 154 b 286 328 333 246 300 307 b 236 392 272 347 256 368 z m 163 499 b 150 626 138 547 146 607 b 183 693 156 667 169 685 b 183 678 183 683 183 678 b 181 468 182 629 181 553 b 163 499 172 481 167 490 z m 204 64 b 208 306 207 124 208 214 b 251 172 235 267 249 228 b 204 64 250 117 231 79 z "},"€":{"ha":379,"x_min":0,"x_max":0,"o":"m 347 200 b 335 233 344 213 340 224 b 318 251 329 242 324 249 b 313 257 317 254 314 256 b 306 260 310 257 307 258 b 300 260 304 260 301 260 b 297 261 299 261 299 261 b 296 261 297 261 296 261 b 292 260 294 261 293 260 b 289 260 290 260 290 260 b 285 257 288 258 286 257 b 282 251 282 254 282 253 b 282 249 281 250 282 249 b 299 221 281 240 292 233 b 301 215 300 219 300 217 b 303 210 301 214 303 211 b 307 196 304 206 306 200 b 308 158 308 185 308 172 b 307 138 308 151 308 144 b 306 128 307 135 307 131 b 304 117 306 124 306 121 l 304 117 l 304 115 l 304 115 l 304 115 l 304 114 b 303 108 303 113 303 110 b 300 100 301 106 301 103 b 294 85 299 94 296 89 b 288 74 292 81 289 76 b 281 65 285 71 282 68 b 274 60 278 63 275 61 b 269 58 272 60 271 58 b 267 57 269 58 268 57 b 264 56 267 57 265 56 b 242 61 253 53 242 61 l 242 61 b 233 67 239 63 236 64 b 214 86 226 72 219 78 b 196 117 207 94 201 104 b 183 157 192 128 188 142 b 175 207 179 172 178 189 b 172 263 174 225 172 244 b 171 311 171 279 171 294 b 222 314 194 311 214 313 b 244 329 247 318 244 329 b 172 344 243 339 210 343 b 172 374 172 354 172 364 b 224 378 196 375 215 376 b 246 392 250 382 246 392 b 174 408 246 403 211 407 b 179 494 175 439 176 468 b 196 579 183 528 189 557 b 204 606 199 589 201 599 b 272 679 213 626 244 704 b 272 679 272 679 272 679 b 272 678 272 679 272 678 b 272 678 272 678 272 678 l 272 678 b 286 660 278 674 282 667 b 297 628 292 651 294 640 b 297 624 297 626 297 625 b 299 619 299 622 299 621 l 299 615 l 299 610 b 300 589 300 603 300 596 b 297 549 300 575 299 561 b 294 531 297 542 296 536 b 290 517 293 526 292 521 b 279 499 286 508 283 503 b 269 490 275 494 272 492 b 254 482 264 488 258 485 b 250 481 253 482 251 482 b 249 479 250 481 249 481 b 244 476 247 478 246 478 b 242 471 243 475 242 472 b 240 468 240 469 240 468 b 250 457 240 464 244 460 b 264 453 254 456 258 454 b 281 454 268 453 275 453 b 301 464 288 456 294 458 b 319 485 308 469 315 476 b 332 511 325 493 329 501 b 339 540 336 521 338 531 b 343 599 343 560 344 579 b 343 613 343 604 343 608 b 343 619 343 615 343 618 b 342 624 342 621 342 622 b 342 628 342 625 342 626 b 336 657 340 638 339 647 b 314 701 331 674 322 689 b 290 724 306 713 296 719 b 274 733 285 728 279 732 b 257 739 268 736 263 738 b 250 739 254 739 253 739 b 244 739 249 739 246 739 b 238 739 243 739 240 739 b 226 738 233 739 229 739 b 221 736 225 738 222 738 b 218 735 219 736 219 736 b 215 735 215 735 215 735 b 182 714 204 729 193 724 b 151 678 171 704 161 692 b 140 657 147 671 143 664 b 129 633 136 649 132 642 b 114 582 124 617 118 600 b 97 474 106 547 100 511 b 93 408 94 453 93 431 b 72 410 83 408 76 408 b 31 390 43 410 31 404 b 54 378 31 381 54 378 b 92 375 64 376 76 376 b 92 363 92 371 92 367 b 92 346 92 357 92 351 b 69 346 82 346 74 346 b 28 326 40 347 28 340 b 53 315 28 317 53 315 b 92 313 61 314 75 313 b 92 308 92 311 92 310 b 93 254 92 290 92 272 b 99 201 94 236 96 219 b 108 153 101 185 104 168 b 122 107 111 136 117 121 b 140 69 128 93 133 81 b 146 61 143 67 144 64 b 151 54 147 58 150 56 b 157 47 153 51 156 49 b 163 40 158 44 160 43 b 172 31 165 38 169 33 b 178 26 175 29 176 28 b 182 24 179 25 181 25 b 188 21 185 22 186 21 b 192 18 189 19 190 18 b 196 15 193 17 194 17 b 199 14 197 15 197 15 b 200 14 199 14 200 14 b 208 10 203 13 206 11 b 210 10 210 10 210 10 b 258 6 215 8 238 1 b 283 11 265 6 274 7 b 299 19 288 14 293 17 b 314 33 304 24 308 28 b 326 51 318 39 324 44 b 338 71 331 57 335 64 b 342 82 339 75 340 79 b 344 93 342 86 343 90 b 346 99 344 96 346 97 l 346 101 l 347 103 l 347 104 l 347 106 b 347 111 347 107 347 108 b 349 117 349 113 349 114 b 351 160 350 131 351 146 b 347 200 351 174 350 188 z "},"£":{"ha":367,"x_min":0,"x_max":0,"o":"m 339 599 b 338 613 339 604 339 608 b 338 619 338 615 338 618 b 338 624 338 621 338 622 b 336 628 338 625 338 626 b 331 657 335 638 333 647 b 307 701 325 674 317 689 b 285 724 299 713 290 719 b 267 733 278 728 272 732 b 250 739 261 736 256 738 b 247 739 250 739 249 739 b 225 739 239 740 231 740 b 221 739 224 739 221 739 b 217 738 219 738 218 738 b 214 736 215 738 214 736 b 206 733 211 736 208 735 b 200 732 204 733 203 732 b 196 729 199 731 197 729 b 193 728 196 728 194 728 b 192 726 193 728 192 726 b 186 724 190 725 189 724 b 178 717 183 721 181 718 b 169 708 175 714 172 711 b 160 699 165 706 163 701 b 144 678 156 692 150 685 b 132 653 140 669 136 661 b 122 626 128 644 125 636 b 107 571 115 608 111 590 b 93 451 99 532 94 492 b 92 408 92 438 92 424 b 71 410 82 408 75 408 b 29 390 42 410 29 404 b 54 378 29 381 54 378 b 92 375 63 376 76 376 b 92 364 92 371 92 367 b 92 346 92 357 92 351 b 69 346 82 346 74 346 b 28 326 40 347 28 340 b 53 315 28 317 53 315 b 92 313 63 314 76 313 b 94 192 93 268 93 226 b 97 100 96 151 96 118 b 99 79 99 92 99 85 b 88 78 94 79 92 79 b 72 75 82 78 78 76 b 58 69 68 74 63 72 b 40 50 50 65 43 57 b 38 39 39 46 38 43 b 38 29 36 36 38 32 b 49 17 40 24 44 19 b 54 14 51 15 53 14 b 60 13 56 13 58 13 b 68 13 63 13 65 13 b 71 13 69 13 71 13 b 74 13 72 13 72 13 b 74 13 74 13 74 13 b 75 13 74 13 74 13 b 76 13 75 13 76 13 b 78 13 78 13 78 13 b 85 13 79 13 82 13 b 94 13 88 13 92 13 b 119 11 101 13 110 13 b 149 8 128 10 138 8 b 165 6 154 7 158 7 l 169 6 l 174 6 b 181 4 176 4 179 4 b 214 3 192 4 203 3 b 246 6 225 3 235 3 b 272 13 256 7 265 10 b 278 15 274 14 276 14 b 282 17 279 15 281 17 b 289 22 285 19 288 21 b 308 51 304 33 307 44 b 307 60 308 54 307 57 b 306 63 306 61 306 63 b 293 71 303 67 299 69 b 283 71 290 71 286 71 b 278 71 281 71 279 71 b 274 71 276 71 275 71 b 271 71 274 71 272 71 b 244 69 263 69 254 68 b 214 71 236 69 225 69 b 176 75 201 72 189 74 b 168 75 174 75 171 75 b 160 76 165 76 163 76 b 154 76 158 76 156 76 b 160 113 157 88 158 100 b 168 215 164 143 167 178 b 171 274 169 235 169 254 b 171 304 171 283 171 294 b 171 311 171 307 171 308 b 222 314 194 311 214 313 b 244 329 247 318 244 329 b 171 344 243 339 210 343 b 172 374 171 354 171 364 b 224 378 194 375 215 376 b 246 392 249 382 246 392 b 172 408 244 403 210 407 b 174 438 172 418 172 428 b 181 528 175 471 178 501 b 196 596 185 556 190 579 b 200 607 197 600 199 604 b 267 679 210 631 239 704 b 267 679 267 679 267 679 b 267 678 267 678 267 678 b 267 678 267 678 267 678 l 267 678 b 281 660 272 674 276 667 b 292 628 286 651 290 640 b 293 624 293 626 293 625 b 293 619 293 622 293 621 l 294 615 l 294 610 b 296 589 294 603 296 596 b 293 549 296 575 296 561 b 290 531 293 542 292 536 b 286 517 290 526 289 521 b 276 499 283 508 279 503 b 267 490 272 494 269 492 b 251 482 261 488 256 485 b 249 481 250 482 249 482 b 246 479 247 481 246 481 b 242 476 244 478 243 478 b 239 471 240 475 239 472 b 239 468 239 469 239 468 b 249 457 239 464 242 460 b 261 453 251 456 256 454 b 279 454 267 453 272 453 b 300 464 286 456 293 458 b 318 485 307 469 313 476 b 329 511 322 493 326 501 b 336 540 332 521 335 531 b 339 599 339 560 340 579 z "},"&":{"ha":376,"x_min":0,"x_max":0,"o":"m 153 72 b 267 163 250 72 265 147 b 268 165 268 163 268 164 b 311 161 282 161 297 160 b 317 163 313 161 315 161 b 347 196 322 167 338 178 b 347 206 349 200 349 204 b 339 207 344 207 342 207 b 276 206 325 204 303 203 b 249 272 275 231 264 254 b 208 290 249 272 236 288 b 194 276 192 292 193 281 b 210 231 200 265 207 249 b 204 233 208 232 207 233 b 151 285 182 250 165 267 b 158 290 154 286 157 288 l 158 290 b 158 290 158 290 158 290 b 164 294 160 290 161 292 b 165 294 164 294 164 294 b 167 297 165 296 167 296 b 169 299 168 297 168 299 b 186 315 174 303 179 308 b 221 372 200 331 214 350 b 222 378 222 374 222 376 b 219 438 232 410 222 433 b 142 469 210 457 183 482 b 82 344 96 456 71 404 b 103 289 83 338 89 315 b 28 169 43 244 26 211 b 153 72 28 169 29 71 z m 126 424 b 158 447 138 442 150 446 b 185 439 175 449 185 439 b 185 439 185 439 185 439 b 196 413 188 435 194 426 b 186 375 196 397 189 382 b 133 314 175 354 156 333 b 115 379 121 340 117 364 b 126 424 115 401 122 418 z m 208 163 b 208 163 208 163 208 163 b 207 163 208 163 208 163 b 200 147 207 160 204 154 b 169 122 193 139 183 128 b 126 118 151 115 138 115 b 83 182 110 121 85 135 b 85 200 83 182 83 189 b 103 238 88 215 96 229 b 110 246 104 240 107 243 l 110 246 b 122 257 113 249 117 253 b 214 183 142 231 171 204 b 208 163 213 176 211 169 z "},"#":{"ha":332,"x_min":0,"x_max":0,"o":"m 289 329 b 275 333 282 332 275 333 b 264 335 271 335 268 335 b 253 338 261 336 257 336 b 239 339 249 338 244 338 b 235 339 238 339 236 339 b 235 344 235 342 235 343 b 236 360 235 350 236 356 b 238 371 238 364 238 368 b 240 389 239 378 240 383 b 240 396 240 392 240 393 b 242 403 242 399 242 400 b 240 424 242 411 242 418 b 226 439 239 435 233 439 b 213 417 221 438 217 428 b 207 396 210 407 207 396 b 204 382 207 392 206 388 b 201 367 204 378 203 372 b 199 349 201 361 200 356 b 197 342 199 346 199 343 b 161 342 186 342 174 342 b 147 342 157 342 153 342 b 150 354 149 346 149 350 b 151 365 150 358 150 363 b 153 382 151 371 153 376 b 154 389 153 385 153 388 b 154 396 154 392 154 394 b 154 418 154 406 154 413 b 139 432 151 428 147 433 b 125 411 133 432 129 421 b 121 390 122 400 121 390 b 118 376 119 386 118 381 b 115 360 117 371 115 365 b 111 343 114 354 113 349 b 111 340 111 342 111 340 b 101 339 108 340 104 339 b 78 338 93 339 85 339 b 69 336 75 338 72 338 b 63 336 67 336 64 336 b 36 322 47 332 40 328 b 35 314 33 318 35 314 b 64 297 35 307 46 301 b 106 293 75 296 90 293 b 100 239 103 275 101 257 b 99 224 99 233 99 229 b 94 224 97 224 96 224 b 72 222 86 224 79 222 b 63 221 68 222 65 222 b 56 219 60 221 58 221 b 31 207 40 217 33 211 b 28 199 26 203 28 199 b 57 182 28 192 40 186 b 94 178 68 181 81 179 b 93 158 94 171 93 164 b 92 128 93 147 92 136 b 92 115 92 124 92 119 b 92 107 92 113 92 108 b 97 74 92 86 94 78 b 104 72 100 71 104 72 b 121 114 110 74 115 89 b 131 176 124 131 128 153 b 161 175 140 176 151 175 b 181 175 168 175 175 175 b 181 165 181 172 181 168 b 179 133 179 153 179 143 b 178 122 179 129 178 125 b 178 113 178 118 178 115 b 185 81 179 93 182 83 b 190 78 188 76 190 78 b 207 119 197 79 203 96 b 217 175 211 136 214 154 b 225 175 219 175 222 175 b 236 175 229 175 233 175 b 244 174 240 175 243 174 b 258 174 250 174 254 174 b 264 174 260 174 261 174 b 268 174 265 174 267 174 b 285 178 275 174 281 175 b 297 199 293 181 297 188 b 283 214 299 206 290 210 b 268 218 275 217 268 218 b 258 219 265 218 261 219 b 246 222 254 221 250 221 b 233 224 242 222 238 222 b 226 224 231 224 228 224 b 222 224 225 224 224 224 b 226 258 224 236 225 247 b 229 290 226 269 228 281 b 232 290 231 290 231 290 b 243 290 236 290 240 290 b 251 289 246 290 249 290 b 264 289 256 289 260 289 b 269 289 267 289 268 289 b 275 289 272 289 274 289 b 292 293 282 289 288 290 b 304 314 300 296 304 304 b 289 329 304 321 297 326 z m 186 244 b 185 226 186 239 186 232 b 156 226 175 226 165 226 b 136 225 149 226 142 226 b 139 253 138 235 138 243 b 143 292 140 265 142 279 b 168 292 151 292 160 292 b 192 290 175 290 183 290 b 186 244 190 275 188 260 z "},"%":{"ha":307,"x_min":0,"x_max":0,"o":"m 267 674 b 236 636 260 676 247 657 b 215 594 225 615 215 594 b 204 567 213 586 208 578 b 190 535 200 557 196 546 b 175 497 186 524 181 511 b 168 478 174 492 171 485 b 160 458 165 471 163 465 b 118 335 139 403 139 396 b 75 210 96 275 90 260 b 53 144 67 186 60 164 b 46 118 50 135 47 126 b 40 99 43 111 42 104 b 29 24 28 54 26 33 b 35 15 31 14 35 15 b 83 94 44 14 61 46 b 138 229 104 143 113 160 b 172 325 150 264 160 290 b 192 382 185 360 186 363 b 221 464 201 414 213 440 b 233 496 225 476 229 486 b 242 519 236 506 239 513 b 256 556 247 532 251 544 b 261 571 257 561 258 565 b 265 586 263 576 264 581 b 278 632 272 604 275 619 b 267 674 282 657 278 671 z m 101 469 b 150 528 126 469 147 496 b 110 586 153 560 135 586 b 63 528 86 586 65 560 b 101 469 60 494 78 469 z m 86 528 b 108 554 88 542 99 554 b 126 528 119 554 128 542 b 103 501 125 513 114 501 b 86 528 92 501 85 513 z m 214 251 b 165 193 189 251 168 225 b 206 135 164 161 181 135 b 253 193 229 135 251 161 b 214 251 256 226 238 251 z m 229 193 b 207 167 228 179 218 167 b 190 193 196 167 188 179 b 213 219 192 208 201 219 b 229 193 224 219 231 208 z "},"+":{"ha":176,"x_min":0,"x_max":0,"o":"m 28 274 b 36 263 28 268 32 265 b 42 261 39 261 42 261 b 47 260 43 260 44 260 b 51 258 49 260 50 260 b 64 258 56 258 60 258 b 67 257 65 257 65 257 b 67 247 67 254 67 250 b 67 238 67 243 67 240 b 92 215 67 218 75 215 b 104 231 97 215 103 225 b 104 235 104 231 104 233 b 107 257 107 238 107 253 b 118 257 111 257 115 257 b 136 260 124 257 132 258 b 149 278 144 263 147 269 b 135 290 147 283 143 288 b 122 294 131 292 126 293 b 108 296 117 296 113 296 b 108 307 108 300 108 304 b 107 318 107 311 107 315 b 104 326 107 321 106 324 b 94 338 103 333 97 336 b 88 338 90 339 88 338 b 74 325 82 338 76 332 b 69 299 71 319 69 304 l 60 299 b 50 299 56 299 53 299 b 32 292 42 299 36 296 b 28 274 28 288 26 282 z "},"-":{"ha":176,"x_min":0,"x_max":0,"o":"m 149 278 b 135 290 147 283 143 288 b 122 294 131 292 126 293 b 106 297 117 296 111 296 b 89 297 100 299 94 297 b 74 299 83 297 78 299 b 60 299 68 299 64 299 b 50 299 56 299 53 299 b 28 274 33 299 28 289 b 36 263 28 268 32 265 b 42 261 39 261 42 261 b 47 260 43 260 44 260 b 51 258 49 260 50 260 b 64 258 56 258 60 258 b 92 257 72 258 82 257 b 106 256 96 256 101 256 b 118 257 110 257 114 257 b 136 260 119 257 135 258 b 149 278 144 263 147 269 z "},"−":{"ha":176,"x_min":0,"x_max":0,"o":"m 149 278 b 135 290 147 283 143 288 b 122 294 131 292 126 293 b 106 297 117 296 111 296 b 89 297 100 299 94 297 b 74 299 83 297 78 299 b 60 299 68 299 64 299 b 50 299 56 299 53 299 b 28 274 33 299 28 289 b 36 263 28 268 32 265 b 42 261 39 261 42 261 b 47 260 43 260 44 260 b 51 258 49 260 50 260 b 64 258 56 258 60 258 b 92 257 72 258 82 257 b 106 256 96 256 101 256 b 118 257 110 257 114 257 b 136 260 119 257 135 258 b 149 278 144 263 147 269 z "},"×":{"ha":154,"x_min":0,"x_max":0,"o":"m 28 247 b 38 231 28 242 32 236 b 51 229 42 226 47 228 b 57 232 54 231 57 232 b 61 235 58 233 60 233 b 65 238 63 236 64 236 b 74 246 68 240 71 243 b 78 249 75 246 76 247 b 86 240 81 246 83 243 b 100 231 90 236 94 232 b 117 229 107 226 113 228 b 121 233 121 231 121 233 b 121 253 125 239 124 246 b 114 265 119 257 117 261 b 106 276 111 268 108 272 b 114 285 108 279 111 282 b 124 300 115 286 124 299 b 125 315 128 307 126 311 b 121 321 124 319 121 321 b 101 321 115 325 108 325 b 90 314 99 319 93 317 b 79 306 86 310 83 308 l 74 313 b 50 328 68 319 58 328 b 33 318 44 328 39 325 b 32 304 29 314 31 308 b 35 299 33 301 35 299 b 38 294 35 297 36 296 b 40 290 38 293 39 292 b 47 281 43 288 44 285 b 50 278 49 281 49 279 b 43 271 47 275 46 274 b 36 264 40 268 39 267 b 28 247 31 258 28 253 z "},"÷":{"ha":176,"x_min":0,"x_max":0,"o":"m 28 274 b 36 263 28 268 32 265 b 42 261 39 261 42 261 b 47 260 43 260 44 260 b 51 258 49 260 50 260 b 64 258 56 258 60 258 b 92 257 72 258 82 258 b 106 256 96 257 101 256 b 118 257 110 257 114 257 b 136 260 124 257 132 258 b 149 278 144 263 147 269 b 135 290 147 283 143 288 b 122 294 131 292 126 293 b 106 297 117 296 111 297 b 89 297 100 297 94 297 b 74 299 83 297 78 299 b 60 299 68 299 64 299 b 50 299 56 299 53 299 b 32 292 42 299 36 296 b 28 274 28 288 26 282 z m 86 206 b 106 225 97 206 106 214 b 86 244 106 236 97 244 b 67 225 75 244 67 236 b 86 206 67 214 75 206 z m 69 331 b 89 310 69 319 79 310 b 108 331 100 310 108 319 b 89 350 108 340 100 350 b 69 331 79 350 69 340 z "},"=":{"ha":151,"x_min":0,"x_max":0,"o":"m 124 239 b 113 251 122 244 118 249 b 103 256 108 253 106 254 b 76 260 97 258 82 260 b 64 260 72 260 68 260 b 53 260 60 260 57 260 b 46 260 50 260 47 260 b 32 254 39 261 35 258 b 29 236 29 249 28 244 b 40 222 31 226 32 226 b 43 222 40 222 42 222 b 89 218 47 218 82 218 b 99 218 93 218 96 218 b 107 219 103 218 106 219 b 114 221 110 219 113 221 b 122 232 119 224 122 228 b 124 239 122 236 124 239 z m 39 278 b 43 276 40 278 42 278 b 47 276 44 276 46 276 b 56 275 50 275 53 275 b 61 274 57 275 60 275 b 67 274 63 274 64 274 b 78 274 69 274 74 274 b 89 274 81 274 85 272 b 99 274 92 274 96 274 b 107 275 101 274 104 274 b 113 276 110 275 111 275 b 122 288 119 279 121 283 b 122 293 124 290 122 293 b 113 307 122 300 118 304 b 101 311 110 308 106 310 b 90 314 99 313 94 313 b 76 315 85 315 81 314 b 64 315 72 317 68 315 b 53 315 60 315 56 315 b 46 315 50 315 47 315 b 28 292 28 315 28 307 b 39 278 28 286 33 281 z "},".":{"ha":115,"x_min":0,"x_max":0,"o":"m 58 92 b 28 61 42 92 28 78 b 58 31 28 44 42 31 b 88 61 75 31 88 44 b 58 92 88 78 75 92 z "},",":{"ha":103,"x_min":0,"x_max":0,"o":"m 51 83 b 40 76 46 83 42 79 b 38 72 39 74 38 72 b 28 1 32 50 28 24 b 31 -6 28 -1 29 -4 b 35 -11 32 -8 33 -10 b 40 -14 38 -12 40 -14 b 50 -12 43 -14 46 -14 b 54 -10 51 -12 53 -11 b 58 -7 56 -10 57 -8 b 69 18 63 -1 67 8 b 75 65 74 35 75 49 b 51 83 75 81 65 83 z "},":":{"ha":106,"x_min":0,"x_max":0,"o":"m 54 296 b 31 271 40 296 31 285 b 54 246 31 257 40 246 b 78 271 67 246 78 257 b 54 296 78 285 67 296 z m 51 218 b 28 192 39 218 28 206 b 51 167 28 178 39 167 b 75 192 65 167 75 178 b 51 218 75 206 65 218 z "},";":{"ha":106,"x_min":0,"x_max":0,"o":"m 53 296 b 29 271 40 296 29 285 b 53 246 29 257 40 246 b 78 271 67 246 78 257 b 53 296 78 285 67 296 z m 61 214 b 46 218 58 217 53 218 b 38 211 42 217 39 214 b 36 207 36 208 36 207 b 31 169 33 199 32 183 b 29 151 31 163 29 156 b 28 138 28 146 28 140 b 29 132 28 136 29 133 b 33 128 31 129 32 128 b 38 125 36 125 38 125 b 44 125 40 124 43 124 b 49 128 46 125 47 126 b 51 131 50 128 50 129 b 61 154 56 136 58 146 b 65 182 64 164 64 174 b 65 200 65 189 65 196 b 61 214 65 207 64 211 z "},"`":{"ha":153,"x_min":0,"x_max":0,"o":"m 32 721 b 106 679 46 699 78 679 b 111 681 107 679 110 681 b 117 682 113 681 115 682 b 124 690 119 683 122 686 b 125 697 124 690 125 693 b 124 704 125 699 125 701 b 107 719 121 711 114 715 b 88 731 101 722 94 726 b 50 753 74 739 60 750 b 44 756 50 753 47 756 b 32 750 40 756 36 756 b 32 721 32 750 22 740 z "},"´":{"ha":153,"x_min":0,"x_max":0,"o":"m 28 697 b 29 690 28 693 29 690 b 36 682 31 686 33 683 b 42 681 38 682 39 681 b 47 679 43 681 44 679 b 119 721 72 679 107 699 b 121 750 129 740 121 750 b 108 756 117 756 111 756 b 101 753 104 756 101 753 b 29 704 92 750 29 714 b 28 697 28 701 28 699 z "},"ˆ":{"ha":192,"x_min":0,"x_max":0,"o":"m 164 689 b 161 696 164 692 163 693 b 151 703 160 697 156 700 b 136 714 146 706 142 710 b 104 736 125 722 114 732 b 97 738 101 738 100 738 b 90 738 96 739 93 738 b 42 707 74 728 57 718 b 32 700 36 704 33 701 b 28 694 29 699 29 696 b 28 689 28 693 28 690 b 31 685 29 686 31 685 b 36 679 32 682 33 681 b 42 678 38 679 40 679 b 47 678 43 678 44 678 b 96 699 65 681 81 688 b 118 683 103 694 110 689 b 154 675 129 675 140 675 b 161 679 157 676 160 678 b 164 685 161 679 163 682 b 164 689 164 686 164 688 z "},"¨":{"ha":192,"x_min":0,"x_max":0,"o":"m 28 707 b 57 682 29 692 42 681 b 81 711 71 683 82 696 b 53 736 79 725 68 738 b 28 707 38 735 26 722 z m 110 701 b 139 676 110 688 124 675 b 164 706 153 678 165 690 b 135 731 163 721 150 732 b 110 701 121 729 108 717 z "},"˚":{"ha":119,"x_min":0,"x_max":0,"o":"m 60 744 b 28 711 42 744 28 729 b 60 679 28 693 42 679 b 92 711 78 679 92 693 b 60 744 92 729 78 744 z m 60 699 b 47 711 53 699 47 704 b 60 725 47 718 53 725 b 72 711 67 725 72 718 b 60 699 72 704 67 699 z "},"˜":{"ha":189,"x_min":0,"x_max":0,"o":"m 161 703 b 86 726 153 743 107 735 b 36 744 65 718 54 749 b 33 714 18 739 33 714 b 128 696 58 664 117 696 b 154 683 143 697 143 682 b 161 703 164 685 161 703 z "},"'":{"ha":99,"x_min":0,"x_max":0,"o":"m 67 768 b 49 771 63 771 57 771 b 39 765 44 771 40 768 b 38 763 38 764 38 763 b 28 708 33 751 28 722 b 31 703 28 706 29 704 b 35 699 32 701 33 700 b 39 697 38 697 39 697 b 47 697 42 696 44 696 b 51 699 49 697 50 699 b 71 757 71 718 71 732 b 67 768 72 763 69 765 z "},"\"":{"ha":147,"x_min":0,"x_max":0,"o":"m 67 771 b 49 774 63 774 57 775 b 39 769 44 774 40 771 b 38 765 38 767 38 765 b 28 711 32 753 28 726 b 35 703 28 708 32 703 b 39 700 38 701 39 700 b 47 700 42 700 44 700 b 51 703 49 701 50 701 b 71 760 67 703 71 749 b 67 771 72 765 69 769 z m 114 756 b 97 758 110 758 104 760 b 85 750 94 758 85 754 b 79 721 82 743 81 732 b 76 706 78 715 78 710 b 75 696 75 701 75 697 b 78 690 76 693 76 692 b 82 688 79 689 81 688 b 88 685 85 686 88 685 b 96 685 90 685 93 685 b 99 688 97 686 99 686 b 103 690 100 688 101 689 b 119 744 115 700 119 728 b 114 756 119 750 118 754 z "},"*":{"ha":139,"x_min":0,"x_max":0,"o":"m 111 753 b 110 758 111 756 110 758 b 96 764 107 763 101 764 b 89 763 93 764 90 764 b 89 767 89 764 89 765 b 83 779 89 772 88 776 b 68 782 81 782 75 783 b 58 776 64 781 61 779 b 57 772 58 775 57 772 b 46 775 53 775 50 775 b 33 753 36 775 33 760 b 36 749 33 750 36 749 b 39 746 38 747 38 746 b 40 743 39 744 39 744 b 38 743 39 743 39 743 b 28 732 32 740 29 736 b 32 717 26 728 29 724 b 42 711 33 713 39 711 b 47 711 44 711 47 711 b 50 713 47 711 49 711 b 54 714 51 713 51 713 b 54 708 54 711 54 710 b 56 703 56 706 56 704 b 65 694 58 697 63 696 b 71 694 68 693 71 694 b 82 704 76 694 79 699 b 83 707 82 706 83 706 b 89 706 86 706 88 706 b 101 707 94 704 99 706 b 104 711 106 708 104 711 b 104 726 108 715 107 721 b 100 733 103 729 101 732 b 104 736 101 735 103 736 b 108 740 106 738 107 739 b 111 753 111 744 113 749 z "},"ç":{"ha":294,"x_min":0,"x_max":0,"o":"m 282 214 b 269 232 281 219 276 226 b 261 229 265 235 261 232 b 157 47 253 193 219 50 b 129 260 118 46 129 260 b 193 465 129 260 135 471 b 213 425 193 465 214 463 b 221 417 213 421 217 417 b 246 438 232 419 242 426 b 249 454 249 443 249 449 b 229 493 244 471 238 485 b 188 511 213 513 188 511 b 31 304 44 506 31 304 b 139 13 31 304 -1 21 l 139 13 b 142 10 140 11 140 10 b 142 8 142 10 142 10 b 142 7 142 8 142 7 b 142 4 142 6 142 6 b 135 1 140 3 139 1 b 128 0 133 1 129 1 b 125 -7 126 -3 125 -4 b 140 -14 126 -11 132 -14 b 143 -14 142 -14 142 -14 b 143 -14 143 -14 143 -14 b 139 -26 143 -14 144 -19 b 135 -31 138 -29 136 -31 b 132 -26 135 -31 132 -28 b 132 -25 132 -26 132 -25 l 132 -25 b 131 -22 131 -24 131 -22 b 125 -17 129 -19 126 -18 b 121 -17 124 -17 122 -17 b 114 -24 118 -17 115 -19 b 115 -32 114 -26 114 -29 b 122 -42 115 -33 118 -39 b 136 -46 124 -43 128 -46 b 138 -46 136 -46 138 -46 b 149 -44 142 -46 146 -46 b 165 -25 163 -40 165 -26 b 167 -21 165 -24 167 -22 b 160 -3 167 -12 163 -6 b 161 3 161 -1 161 0 b 161 3 161 3 161 3 b 161 8 161 4 161 7 b 160 14 161 10 161 13 b 285 194 186 17 258 42 b 282 214 286 201 286 208 z "},"Ç":{"ha":393,"x_min":0,"x_max":0,"o":"m 354 189 b 346 197 351 192 349 194 b 335 192 342 200 336 197 b 243 39 329 158 307 50 b 140 144 185 29 157 83 b 132 333 122 219 132 333 b 260 707 164 694 260 707 b 306 611 294 710 306 643 b 314 604 307 607 310 604 b 338 618 322 607 331 611 b 344 642 343 625 346 633 b 257 744 326 753 257 744 b 33 351 257 744 53 751 b 215 -1 33 351 -1 -1 b 217 -3 215 -1 217 -3 b 217 -4 217 -3 217 -3 b 217 -7 217 -4 217 -6 b 215 -10 217 -8 217 -8 b 207 -14 214 -12 213 -15 b 196 -18 204 -14 199 -14 b 193 -26 193 -19 192 -22 b 214 -37 193 -33 203 -39 b 219 -36 215 -37 217 -36 b 219 -37 219 -36 219 -37 b 214 -56 219 -37 221 -46 b 207 -62 211 -60 208 -62 b 203 -56 206 -62 203 -58 b 201 -54 203 -54 203 -54 l 201 -53 b 200 -49 201 -51 200 -50 b 192 -42 197 -44 194 -43 b 186 -42 190 -42 188 -42 b 176 -53 182 -42 178 -44 b 178 -64 175 -56 176 -60 b 188 -78 178 -65 181 -74 b 208 -85 190 -81 197 -85 b 211 -85 208 -85 210 -85 b 226 -82 217 -85 222 -83 b 251 -53 247 -76 251 -56 b 253 -49 253 -51 253 -50 b 244 -21 254 -35 249 -25 b 246 -14 244 -18 246 -15 b 246 -12 246 -12 246 -12 b 246 -4 246 -10 246 -7 b 244 1 246 -3 246 0 b 247 1 246 1 246 1 b 368 142 247 1 338 8 b 354 189 372 158 367 176 z "},"Ø":{"ha":422,"x_min":0,"x_max":0,"o":"m 44 179 b 89 60 56 125 71 86 b 85 44 88 54 86 49 b 82 -17 71 4 81 -8 b 88 -24 83 -25 88 -24 b 115 26 93 -24 103 -17 b 169 -1 144 -1 169 -1 b 392 393 169 -1 368 -24 b 307 719 392 393 414 636 b 308 731 307 724 308 728 b 297 764 310 751 306 760 b 276 738 292 767 283 753 b 179 743 250 747 218 750 b 44 179 28 717 6 372 z m 183 704 b 254 674 214 710 238 696 b 238 622 250 660 240 631 b 229 593 235 613 233 603 b 224 578 226 588 225 582 l 219 561 b 181 418 208 517 192 467 b 104 133 169 368 113 174 b 100 115 103 126 101 121 b 69 328 85 158 72 225 b 183 704 63 606 133 696 z m 126 64 b 169 218 139 107 156 172 b 228 421 178 246 219 393 b 249 500 236 447 242 475 b 267 565 256 524 264 547 b 278 610 269 579 274 597 b 281 617 279 611 279 614 b 285 599 282 611 283 606 b 294 411 300 524 294 411 b 167 38 263 50 167 38 b 126 64 167 38 147 36 z "},"ø":{"ha":374,"x_min":0,"x_max":0,"o":"m 79 51 b 76 47 78 50 78 49 b 67 3 67 21 65 8 b 71 -4 68 -4 71 -4 b 103 32 78 -6 89 8 b 169 15 121 21 143 15 b 324 175 260 15 304 92 b 344 179 332 176 339 178 b 368 215 360 183 365 201 b 365 218 368 218 367 219 b 331 211 353 215 342 213 b 325 394 342 285 336 358 b 314 428 325 394 322 410 b 319 444 318 438 318 439 b 328 463 321 450 325 457 b 338 489 333 472 336 482 b 332 515 340 503 339 513 b 308 496 326 518 317 507 b 293 474 300 486 293 474 l 292 469 b 199 525 271 497 242 524 b 122 442 154 526 129 492 b 100 443 110 444 100 443 b 25 243 100 443 39 431 b 79 51 25 243 17 115 z m 200 208 b 272 175 224 189 250 179 b 172 46 253 97 210 46 b 135 86 154 46 142 63 b 200 208 140 96 200 207 z m 200 479 b 264 415 232 481 251 447 l 229 343 b 200 292 222 328 210 310 b 175 396 188 322 178 371 b 200 479 165 481 200 479 z m 279 360 b 281 213 288 307 288 257 b 222 250 258 218 239 229 b 279 360 242 288 260 324 z m 124 239 b 133 321 125 272 129 299 b 172 240 139 301 157 256 b 169 236 171 239 171 238 b 138 171 153 201 139 203 b 124 143 138 165 131 156 b 124 239 119 192 124 239 z "},"À":{"ha":438,"x_min":0,"x_max":0,"o":"m 239 743 b 47 138 239 743 82 739 b 33 140 40 139 36 140 b 28 136 31 142 28 139 b 33 115 28 129 31 121 b 44 104 36 110 40 106 b 46 104 46 104 46 104 b 42 25 44 79 43 53 b 64 -3 42 13 50 0 b 81 -3 68 -4 75 -4 b 88 6 85 -1 88 3 b 89 94 88 18 88 50 b 313 93 154 86 246 89 b 313 8 313 65 313 38 b 322 -3 313 3 317 -1 b 383 0 340 -8 364 -8 b 410 42 399 8 410 25 b 239 743 410 156 403 747 z m 90 131 b 233 696 97 313 126 629 b 311 124 233 696 303 676 b 90 131 217 117 139 124 z m 218 800 b 246 785 226 794 236 789 b 276 778 257 779 267 776 b 282 778 278 778 281 778 b 288 781 283 778 286 779 b 293 788 290 782 292 783 b 296 794 293 788 294 790 b 294 801 296 796 294 799 b 290 808 293 804 292 806 b 278 817 288 811 283 814 b 258 829 272 821 265 825 b 221 851 244 838 231 847 b 215 853 221 851 218 853 b 203 847 211 853 207 853 b 203 819 203 847 193 839 b 218 800 203 819 210 808 z "},"Á":{"ha":438,"x_min":0,"x_max":0,"o":"m 239 743 b 47 138 239 743 82 739 b 33 140 40 139 36 140 b 28 136 31 142 28 139 b 33 115 28 129 31 121 b 44 104 36 110 40 106 b 46 104 46 104 46 104 b 42 25 44 79 43 53 b 64 -3 42 13 50 0 b 81 -3 68 -4 75 -4 b 88 6 85 -1 88 3 b 89 94 88 18 88 50 b 313 93 154 86 246 89 b 313 8 313 65 313 38 b 322 -3 313 3 317 -1 b 383 0 340 -8 364 -8 b 410 42 399 8 410 25 b 239 743 410 156 403 747 z m 90 131 b 233 696 97 313 126 629 b 311 124 233 696 303 676 b 90 131 217 117 139 124 z m 290 800 b 306 819 300 808 306 819 b 307 847 315 839 307 847 b 294 853 303 853 297 853 b 288 851 290 853 288 851 b 250 829 279 847 264 838 b 232 817 243 825 238 821 b 219 808 226 814 221 811 b 215 801 217 806 215 804 b 214 794 214 799 214 796 b 215 788 214 790 215 788 b 222 781 217 783 219 782 b 228 778 224 779 225 778 b 233 778 229 778 231 778 b 263 785 242 776 253 779 b 290 800 274 789 283 794 z "},"Â":{"ha":438,"x_min":0,"x_max":0,"o":"m 239 743 b 47 138 239 743 82 739 b 33 140 40 139 36 140 b 28 136 31 142 28 139 b 33 115 28 129 31 121 b 44 104 36 110 40 106 b 46 104 46 104 46 104 b 42 25 44 79 43 53 b 64 -3 42 13 50 0 b 81 -3 68 -4 75 -4 b 88 6 85 -1 88 3 b 89 94 88 18 88 50 b 313 93 154 86 246 89 b 313 8 313 65 313 38 b 322 -3 313 3 317 -1 b 383 0 340 -8 364 -8 b 410 42 399 8 410 25 b 239 743 410 156 403 747 z m 90 131 b 233 696 97 313 126 629 b 311 124 233 696 303 676 b 90 131 217 117 139 124 z m 315 790 b 313 796 314 793 314 794 b 303 804 310 799 307 801 b 288 815 299 807 293 811 b 257 836 276 824 265 832 b 256 838 257 836 257 838 b 249 839 253 839 250 839 b 242 838 246 839 244 839 b 240 838 240 838 240 838 b 208 818 232 833 219 825 b 193 808 203 815 197 811 b 182 801 188 806 185 803 b 179 796 181 799 179 797 b 179 790 179 794 179 792 b 181 785 179 788 181 785 b 188 781 183 783 185 782 b 193 779 189 781 190 779 b 199 779 194 779 196 779 b 224 786 206 779 215 782 b 247 800 232 790 240 796 b 247 800 247 800 247 800 b 247 800 247 800 247 800 b 269 785 253 794 261 789 b 294 776 278 781 288 776 b 300 775 297 775 299 775 b 306 776 301 775 304 776 b 313 781 308 776 311 779 b 314 786 313 781 314 783 b 315 790 315 788 315 789 z "},"Ã":{"ha":438,"x_min":0,"x_max":0,"o":"m 239 743 b 47 138 239 743 82 739 b 33 140 40 139 36 140 b 28 136 31 142 28 139 b 33 115 28 129 31 121 b 44 104 36 110 40 106 b 46 104 46 104 46 104 b 42 25 44 79 43 53 b 64 -3 42 13 50 0 b 81 -3 68 -4 75 -4 b 88 6 85 -1 88 3 b 89 94 88 18 88 50 b 313 93 154 86 246 89 b 313 8 313 65 313 38 b 322 -3 313 3 317 -1 b 383 0 340 -8 364 -8 b 410 42 399 8 410 25 b 239 743 410 156 403 747 z m 90 131 b 233 696 97 313 126 629 b 311 124 233 696 303 676 b 90 131 217 117 139 124 z m 314 796 b 240 819 307 836 261 828 b 190 838 219 810 208 842 b 188 807 172 832 188 807 b 281 789 211 756 271 789 b 307 776 297 790 297 775 b 314 796 318 778 314 796 z "},"Ä":{"ha":438,"x_min":0,"x_max":0,"o":"m 239 743 b 47 138 239 743 82 739 b 33 140 40 139 36 140 b 28 136 31 142 28 139 b 33 115 28 129 31 121 b 44 104 36 110 40 106 b 46 104 46 104 46 104 b 42 25 44 79 43 53 b 64 -3 42 13 50 0 b 81 -3 68 -4 75 -4 b 88 6 85 -1 88 3 b 89 94 88 18 88 50 b 313 93 154 86 246 89 b 313 8 313 65 313 38 b 322 -3 313 3 317 -1 b 383 0 340 -8 364 -8 b 410 42 399 8 410 25 b 239 743 410 156 403 747 z m 90 131 b 233 696 97 313 126 629 b 311 124 233 696 303 676 b 90 131 217 117 139 124 z m 207 835 b 182 806 192 833 181 821 b 210 781 182 790 196 779 b 235 810 225 781 236 794 b 207 835 233 824 221 836 z m 289 829 b 264 801 274 829 263 815 b 292 775 265 786 278 775 b 317 804 307 776 318 789 b 289 829 317 819 303 831 z "},"Å":{"ha":438,"x_min":0,"x_max":0,"o":"m 239 743 b 47 138 239 743 82 739 b 33 140 40 139 36 140 b 28 136 31 142 28 139 b 33 115 28 129 31 121 b 44 104 36 110 40 106 b 46 104 46 104 46 104 b 42 25 44 79 43 53 b 64 -3 42 13 50 0 b 81 -3 68 -4 75 -4 b 88 6 85 -1 88 3 b 89 94 88 18 88 50 b 313 93 154 86 246 89 b 313 8 313 65 313 38 b 322 -3 313 3 317 -1 b 383 0 340 -8 364 -8 b 410 42 399 8 410 25 b 239 743 410 156 403 747 z m 90 131 b 233 696 97 313 126 629 b 311 124 233 696 303 676 b 90 131 217 117 139 124 z m 250 842 b 218 808 233 842 218 826 b 250 776 218 790 233 776 b 282 808 268 776 282 790 b 250 842 282 826 268 842 z m 250 796 b 238 808 243 796 238 801 b 250 822 238 817 243 822 b 264 808 257 822 264 817 b 250 796 264 801 257 796 z "},"È":{"ha":386,"x_min":0,"x_max":0,"o":"m 358 118 b 351 138 357 125 354 132 b 344 139 350 140 346 140 b 138 40 267 33 138 40 b 128 213 138 40 132 119 b 282 217 165 213 224 213 b 297 228 288 217 294 221 b 304 250 300 233 303 242 b 297 256 304 253 301 256 b 126 251 275 254 188 251 b 124 328 125 276 124 303 b 142 704 121 458 142 704 b 336 699 182 710 301 701 b 344 708 342 699 346 703 b 338 738 343 722 338 738 b 75 746 332 756 140 749 b 50 724 63 744 53 736 b 28 407 43 681 28 574 b 58 17 28 208 39 64 b 78 3 61 8 68 3 b 354 93 124 -1 294 -6 b 358 118 358 101 360 110 z m 168 800 b 196 783 176 794 186 788 b 226 776 207 779 217 776 b 232 778 228 776 231 776 b 238 779 233 778 236 778 b 243 786 240 781 242 783 b 244 793 243 786 244 789 b 244 800 246 796 244 799 b 240 807 243 803 242 806 b 228 817 238 810 233 813 b 208 828 222 819 215 824 b 171 850 194 836 181 846 b 165 853 171 850 168 851 b 151 847 161 853 157 851 b 153 818 151 847 143 838 b 168 800 153 818 158 807 z "},"É":{"ha":386,"x_min":0,"x_max":0,"o":"m 358 118 b 351 138 357 125 354 132 b 344 139 350 140 346 140 b 138 40 267 33 138 40 b 128 213 138 40 132 119 b 282 217 165 213 224 213 b 297 228 288 217 294 221 b 304 250 300 233 303 242 b 297 256 304 253 301 256 b 126 251 275 254 188 251 b 124 328 125 276 124 303 b 142 704 121 458 142 704 b 336 699 182 710 301 701 b 344 708 342 699 346 703 b 338 738 343 722 338 738 b 75 746 332 756 140 749 b 50 724 63 744 53 736 b 28 407 43 681 28 574 b 58 17 28 208 39 64 b 78 3 61 8 68 3 b 354 93 124 -1 294 -6 b 358 118 358 101 360 110 z m 243 797 b 258 815 253 804 258 815 b 260 844 268 835 260 844 b 246 850 256 849 250 850 b 240 847 243 849 240 847 b 203 825 231 843 217 833 b 183 814 196 821 189 817 b 171 804 178 810 174 807 b 167 797 169 803 168 800 b 167 790 167 796 167 793 b 168 783 167 786 168 783 b 174 776 169 781 171 778 b 179 775 176 775 178 775 b 186 774 182 774 183 774 b 215 781 194 774 206 776 b 243 797 225 785 235 792 z "},"Ê":{"ha":386,"x_min":0,"x_max":0,"o":"m 358 118 b 351 138 357 125 354 132 b 344 139 350 140 346 140 b 138 40 267 33 138 40 b 128 213 138 40 132 119 b 282 217 165 213 224 213 b 297 228 288 217 294 221 b 304 250 300 233 303 242 b 297 256 304 253 301 256 b 126 251 275 254 188 251 b 124 328 125 276 124 303 b 142 704 121 458 142 704 b 336 699 182 710 301 701 b 344 708 342 699 346 703 b 338 738 343 722 338 738 b 75 746 332 756 140 749 b 50 724 63 744 53 736 b 28 407 43 681 28 574 b 58 17 28 208 39 64 b 78 3 61 8 68 3 b 354 93 124 -1 294 -6 b 358 118 358 101 360 110 z m 281 793 b 278 799 279 794 279 797 b 268 807 275 800 272 803 b 253 818 263 810 258 814 b 222 839 242 826 231 835 b 221 840 222 839 222 839 b 214 842 218 842 215 842 b 207 840 211 842 210 842 b 206 839 206 840 206 839 b 174 821 197 836 185 828 b 158 811 168 817 163 814 b 147 803 153 808 150 806 b 144 799 146 801 144 800 b 144 793 144 796 144 794 b 146 788 144 790 146 788 b 153 783 147 786 150 783 b 158 782 154 782 156 782 b 164 782 160 782 161 782 b 189 789 171 782 181 785 b 213 803 197 793 206 799 b 213 803 213 803 213 803 b 213 803 213 803 213 803 b 235 788 218 797 226 792 b 260 778 243 782 253 779 b 265 778 263 778 264 778 b 271 779 267 778 269 778 b 278 783 274 779 275 781 b 279 788 278 783 279 785 b 281 793 281 789 281 792 z "},"Ë":{"ha":386,"x_min":0,"x_max":0,"o":"m 358 118 b 351 138 357 125 354 132 b 344 139 350 140 346 140 b 138 40 267 33 138 40 b 128 213 138 40 132 119 b 282 217 165 213 224 213 b 297 228 288 217 294 221 b 304 250 300 233 303 242 b 297 256 304 253 301 256 b 126 251 275 254 188 251 b 124 328 125 276 124 303 b 142 704 121 458 142 704 b 336 699 182 710 301 701 b 344 708 342 699 346 703 b 338 738 343 722 338 738 b 75 746 332 756 140 749 b 50 724 63 744 53 736 b 28 407 43 681 28 574 b 58 17 28 208 39 64 b 78 3 61 8 68 3 b 354 93 124 -1 294 -6 b 358 118 358 101 360 110 z m 171 836 b 146 807 156 835 144 822 b 174 782 146 792 160 781 b 199 810 189 782 200 796 b 171 836 197 825 185 836 z m 253 831 b 228 801 238 831 226 817 b 256 776 229 788 242 775 b 281 806 271 778 282 790 b 253 831 281 821 268 832 z "},"Ì":{"ha":224,"x_min":0,"x_max":0,"o":"m 213 711 b 206 733 211 719 207 728 b 193 742 203 738 199 742 b 43 742 147 750 69 743 b 29 731 38 740 32 736 b 28 706 28 724 28 714 b 33 701 29 703 31 701 b 71 704 44 703 57 704 b 69 38 64 583 44 179 b 39 40 58 38 47 39 b 38 39 38 40 38 40 b 39 10 36 28 36 18 b 47 3 40 6 43 4 b 175 3 67 1 136 -4 b 181 8 178 4 179 6 b 188 33 183 14 188 24 b 186 36 189 35 188 36 b 149 35 181 36 167 36 b 171 706 133 203 164 625 b 207 706 186 706 200 706 b 213 711 210 706 213 708 z m 96 801 b 124 785 103 796 113 790 b 153 778 133 781 144 778 b 158 779 154 779 157 779 b 164 781 161 779 163 781 b 171 789 167 783 169 785 b 172 796 171 789 172 792 b 171 803 172 797 172 800 b 167 810 171 804 169 807 b 154 818 165 811 160 815 b 136 831 149 821 142 825 b 99 853 122 839 107 849 b 92 854 99 853 96 854 b 79 849 88 854 83 854 b 81 819 79 849 69 839 b 96 801 81 819 86 808 z "},"Í":{"ha":224,"x_min":0,"x_max":0,"o":"m 213 711 b 206 733 211 719 207 728 b 193 742 203 738 199 742 b 43 742 147 750 69 743 b 29 731 38 740 32 736 b 28 706 28 724 28 714 b 33 701 29 703 31 701 b 71 704 44 703 57 704 b 69 38 64 583 44 179 b 39 40 58 38 47 39 b 38 39 38 40 38 40 b 39 10 36 28 36 18 b 47 3 40 6 43 4 b 175 3 67 1 136 -4 b 181 8 178 4 179 6 b 188 33 183 14 188 24 b 186 36 189 35 188 36 b 149 35 181 36 167 36 b 171 706 133 203 164 625 b 207 706 186 706 200 706 b 213 711 210 706 213 708 z m 160 801 b 175 819 169 808 175 819 b 176 849 186 839 176 849 b 164 854 172 854 168 854 b 157 853 160 854 157 853 b 121 831 149 849 135 839 b 101 818 114 825 107 821 b 89 810 96 815 90 811 b 85 803 86 807 85 804 b 83 796 83 800 83 797 b 85 789 83 792 85 789 b 92 781 86 785 89 783 b 97 779 93 781 94 779 b 103 778 99 779 101 779 b 132 785 111 778 122 781 b 160 801 143 790 153 796 z "},"Î":{"ha":224,"x_min":0,"x_max":0,"o":"m 213 711 b 206 733 211 719 207 728 b 193 742 203 738 199 742 b 43 742 147 750 69 743 b 29 731 38 740 32 736 b 28 706 28 724 28 714 b 33 701 29 703 31 701 b 71 704 44 703 57 704 b 69 38 64 583 44 179 b 39 40 58 38 47 39 b 38 39 38 40 38 40 b 39 10 36 28 36 18 b 47 3 40 6 43 4 b 175 3 67 1 136 -4 b 181 8 178 4 179 6 b 188 33 183 14 188 24 b 186 36 189 35 188 36 b 149 35 181 36 167 36 b 171 706 133 203 164 625 b 207 706 186 706 200 706 b 213 711 210 706 213 708 z m 192 792 b 189 797 192 793 190 796 b 179 806 188 800 183 803 b 164 817 175 808 169 813 b 133 838 153 825 142 833 b 132 839 133 838 133 838 b 125 840 129 840 128 840 b 118 839 124 840 121 840 b 117 839 117 839 117 839 b 85 819 108 835 97 826 b 69 810 79 815 74 813 b 60 803 64 807 61 804 b 56 797 57 800 57 799 b 56 792 56 794 56 793 b 58 786 57 789 58 786 b 64 782 60 785 61 783 b 69 781 65 781 68 781 b 75 781 71 781 72 781 b 100 788 83 781 92 783 b 124 801 110 792 118 797 b 124 801 124 801 124 801 b 124 801 124 801 124 801 b 146 786 131 796 138 790 b 172 776 154 782 164 778 b 178 776 174 776 175 776 b 182 778 179 776 181 776 b 189 782 185 778 188 779 b 192 788 189 782 190 783 b 192 792 192 789 192 790 z "},"Ï":{"ha":224,"x_min":0,"x_max":0,"o":"m 213 711 b 206 733 211 719 207 728 b 193 742 203 738 199 742 b 43 742 147 750 69 743 b 29 731 38 740 32 736 b 28 706 28 724 28 714 b 33 701 29 703 31 701 b 71 704 44 703 57 704 b 69 38 64 583 44 179 b 39 40 58 38 47 39 b 38 39 38 40 38 40 b 39 10 36 28 36 18 b 47 3 40 6 43 4 b 175 3 67 1 136 -4 b 181 8 178 4 179 6 b 188 33 183 14 188 24 b 186 36 189 35 188 36 b 149 35 181 36 167 36 b 171 706 133 203 164 625 b 207 706 186 706 200 706 b 213 711 210 706 213 708 z m 81 836 b 56 807 67 835 56 822 b 85 782 57 792 69 781 b 110 810 99 782 110 796 b 81 836 108 825 96 836 z m 163 831 b 138 801 149 829 138 817 b 167 776 139 786 151 775 b 192 806 181 778 193 790 b 163 831 190 821 178 832 z "},"Ñ":{"ha":454,"x_min":0,"x_max":0,"o":"m 408 7 b 400 289 401 25 399 78 b 269 726 403 553 369 724 b 133 586 213 728 164 651 b 142 711 136 647 140 692 b 135 728 142 717 139 724 b 53 742 110 750 71 746 b 43 731 47 740 43 736 b 42 22 39 658 13 172 b 54 7 43 15 47 10 b 117 0 71 -1 93 -3 b 121 7 119 0 122 3 b 125 464 110 96 117 297 b 261 654 139 514 194 658 b 304 54 332 650 307 150 b 318 18 303 42 308 28 b 403 -1 342 -4 382 -4 b 408 7 407 -1 410 3 z m 310 776 b 236 800 303 817 257 808 b 186 818 215 792 204 822 b 183 788 168 813 183 788 b 278 769 208 738 267 769 b 303 757 293 771 293 756 b 310 776 314 758 310 776 z "},"Ò":{"ha":422,"x_min":0,"x_max":0,"o":"m 179 742 b 44 179 29 710 6 372 b 169 -1 81 0 169 -1 b 392 392 169 -1 368 -24 b 179 742 392 392 428 796 z m 294 411 b 167 38 263 50 167 38 b 69 328 167 38 79 29 b 183 704 61 606 133 696 b 285 599 242 714 269 660 b 294 411 304 525 294 411 z m 196 801 b 224 785 203 796 213 790 b 253 778 233 781 244 778 b 258 779 256 779 257 779 b 264 781 261 779 263 781 b 271 789 267 783 269 785 b 272 796 271 789 272 792 b 271 803 272 797 272 800 b 267 810 271 804 269 807 b 254 818 265 811 261 815 b 236 831 249 821 243 825 b 199 853 222 839 207 849 b 192 854 199 853 196 854 b 179 849 189 854 183 854 b 181 819 179 849 171 839 b 196 801 181 819 186 808 z "},"Ó":{"ha":422,"x_min":0,"x_max":0,"o":"m 179 742 b 44 179 29 710 6 372 b 169 -1 81 0 169 -1 b 392 392 169 -1 368 -24 b 179 742 392 392 428 796 z m 294 411 b 167 38 263 50 167 38 b 69 328 167 38 79 29 b 183 704 61 606 133 696 b 285 599 242 714 269 660 b 294 411 304 525 294 411 z m 253 800 b 268 819 263 808 268 819 b 269 847 279 839 269 847 b 257 853 265 853 261 853 b 251 851 253 853 251 851 b 214 829 242 847 228 838 b 194 817 207 825 200 821 b 182 808 189 814 185 811 b 178 801 179 806 178 804 b 176 794 176 799 176 796 b 178 788 176 790 178 788 b 185 781 179 783 182 782 b 190 778 186 779 188 778 b 196 778 192 778 194 778 b 225 785 204 776 215 779 b 253 800 236 789 246 794 z "},"Ô":{"ha":422,"x_min":0,"x_max":0,"o":"m 179 742 b 44 179 29 710 6 372 b 169 -1 81 0 169 -1 b 392 392 169 -1 368 -24 b 179 742 392 392 428 796 z m 294 411 b 167 38 263 50 167 38 b 69 328 167 38 79 29 b 183 704 61 606 133 696 b 285 599 242 714 269 660 b 294 411 304 525 294 411 z m 290 793 b 288 799 290 794 289 797 b 278 807 286 800 283 803 b 263 818 274 810 268 814 b 233 839 251 826 240 835 b 231 840 233 839 232 839 b 225 842 229 842 226 842 b 218 840 222 842 219 842 b 215 839 217 840 215 839 b 185 821 208 836 196 828 b 168 811 179 817 172 814 b 158 803 164 808 160 806 b 156 799 157 801 156 800 b 156 793 154 796 154 794 b 157 788 156 790 157 788 b 164 783 158 786 161 783 b 168 782 165 782 167 782 b 174 782 169 782 172 782 b 200 789 182 782 192 785 b 222 803 208 793 217 799 b 224 803 224 803 224 803 b 224 803 224 803 224 803 b 246 788 229 797 238 792 b 271 778 254 782 263 779 b 276 778 272 778 275 778 b 281 779 278 778 279 778 b 288 783 283 779 286 781 b 290 788 288 783 289 785 b 290 793 290 789 290 792 z "},"Õ":{"ha":422,"x_min":0,"x_max":0,"o":"m 179 742 b 44 179 29 710 6 372 b 169 -1 81 0 169 -1 b 392 392 169 -1 368 -24 b 179 742 392 392 428 796 z m 294 411 b 167 38 263 50 167 38 b 69 328 167 38 79 29 b 183 704 61 606 133 696 b 285 599 242 714 269 660 b 294 411 304 525 294 411 z m 285 796 b 211 819 278 836 232 828 b 161 838 190 810 179 842 b 158 807 143 832 158 807 b 253 789 183 756 242 789 b 278 776 268 790 268 775 b 285 796 289 778 285 796 z "},"Ö":{"ha":422,"x_min":0,"x_max":0,"o":"m 179 742 b 44 179 29 710 6 372 b 169 -1 81 0 169 -1 b 392 392 169 -1 368 -24 b 179 742 392 392 428 796 z m 294 411 b 167 38 263 50 167 38 b 69 328 167 38 79 29 b 183 704 61 606 133 696 b 285 599 242 714 269 660 b 294 411 304 525 294 411 z m 179 838 b 156 808 165 836 154 824 b 183 783 156 793 168 782 b 208 811 199 783 210 797 b 179 838 207 826 194 838 z m 263 832 b 238 803 247 831 236 818 b 265 778 238 788 251 776 b 290 807 281 779 292 792 b 263 832 289 822 276 833 z "},"Ù":{"ha":442,"x_min":0,"x_max":0,"o":"m 301 358 b 285 200 301 358 299 272 b 175 46 268 118 235 43 b 93 354 68 50 93 354 b 119 718 103 521 115 671 b 94 750 121 733 110 747 b 47 747 78 753 58 750 b 38 735 42 746 38 742 b 28 349 35 694 29 528 b 42 172 28 349 25 257 b 176 0 60 85 101 -1 b 392 360 388 3 392 360 b 414 699 399 515 410 650 b 390 739 415 717 406 732 b 331 743 369 747 346 744 b 315 726 322 742 317 735 b 301 358 313 681 303 528 z m 204 803 b 232 786 213 797 222 790 b 261 779 242 782 253 779 b 268 781 264 779 265 781 b 274 782 269 781 271 782 b 279 790 276 783 278 786 b 281 797 279 790 281 793 b 281 804 281 799 281 801 b 276 811 279 806 278 808 b 264 819 274 813 269 815 b 244 831 258 822 251 826 b 207 853 231 840 217 850 b 201 856 207 853 204 856 b 188 850 197 856 192 856 b 189 821 188 850 179 840 b 204 803 189 821 194 810 z "},"Ú":{"ha":442,"x_min":0,"x_max":0,"o":"m 301 358 b 285 200 301 358 299 272 b 175 46 268 118 235 43 b 93 354 68 50 93 354 b 119 718 103 521 115 671 b 94 750 121 733 110 747 b 47 747 78 753 58 750 b 38 735 42 746 38 742 b 28 349 35 694 29 528 b 42 172 28 349 25 257 b 176 0 60 85 101 -1 b 392 360 388 3 392 360 b 414 699 399 515 410 650 b 390 739 415 717 406 732 b 331 743 369 747 346 744 b 315 726 322 742 317 735 b 301 358 313 681 303 528 z m 267 800 b 282 819 276 808 282 819 b 283 847 292 839 283 847 b 271 853 279 853 274 853 b 264 851 267 853 264 851 b 226 829 256 847 240 838 b 207 817 219 825 214 821 b 196 808 201 814 197 811 b 192 801 193 806 192 804 b 190 794 190 799 190 796 b 192 788 190 790 192 788 b 199 781 193 783 196 782 b 204 778 200 779 201 778 b 210 778 206 778 207 778 b 239 785 218 776 229 779 b 267 800 250 789 260 794 z "},"Û":{"ha":442,"x_min":0,"x_max":0,"o":"m 301 358 b 285 200 301 358 299 272 b 175 46 268 118 235 43 b 93 354 68 50 93 354 b 119 718 103 521 115 671 b 94 750 121 733 110 747 b 47 747 78 753 58 750 b 38 735 42 746 38 742 b 28 349 35 694 29 528 b 42 172 28 349 25 257 b 176 0 60 85 101 -1 b 392 360 388 3 392 360 b 414 699 399 515 410 650 b 390 739 415 717 406 732 b 331 743 369 747 346 744 b 315 726 322 742 317 735 b 301 358 313 681 303 528 z m 290 794 b 288 800 289 796 289 799 b 278 808 286 801 282 804 b 263 819 274 811 268 815 b 232 840 251 826 240 836 b 231 842 232 840 232 840 b 224 843 228 842 226 843 b 217 842 222 843 219 843 b 215 840 215 842 215 840 b 183 822 207 838 196 829 b 168 811 178 818 172 815 b 157 804 163 808 160 807 b 154 799 156 803 154 801 b 154 794 154 797 154 796 b 157 789 154 792 157 789 b 163 785 158 786 160 785 b 168 783 164 783 165 783 b 174 783 169 783 171 783 b 199 790 181 783 190 786 b 222 804 208 794 215 799 b 222 804 222 804 222 804 b 222 804 222 804 222 804 b 244 789 228 799 236 793 b 269 779 253 783 263 781 b 275 779 272 779 274 779 b 281 779 278 779 279 779 b 288 785 283 781 286 782 b 290 789 288 785 289 786 b 290 794 290 790 290 793 z "},"Ü":{"ha":442,"x_min":0,"x_max":0,"o":"m 301 358 b 285 200 301 358 299 272 b 175 46 268 118 235 43 b 93 354 68 50 93 354 b 119 718 103 521 115 671 b 94 750 121 733 110 747 b 47 747 78 753 58 750 b 38 735 42 746 38 742 b 28 349 35 694 29 528 b 42 172 28 349 25 257 b 176 0 60 85 101 -1 b 392 360 388 3 392 360 b 414 699 399 515 410 650 b 390 739 415 717 406 732 b 331 743 369 747 346 744 b 315 726 322 742 317 735 b 301 358 313 681 303 528 z m 185 839 b 160 810 171 838 160 824 b 189 783 161 794 174 783 b 214 813 203 785 214 797 b 185 839 213 828 200 839 z m 268 833 b 243 804 253 832 242 819 b 271 779 243 789 256 778 b 296 808 286 781 297 793 b 268 833 294 822 282 835 z "},"Ÿ":{"ha":408,"x_min":0,"x_max":0,"o":"m 394 699 b 390 717 396 704 394 711 b 340 746 383 726 369 740 b 329 738 335 747 329 743 b 210 214 324 689 299 463 b 121 733 143 435 124 689 b 114 739 121 738 118 739 b 33 661 97 733 54 717 b 29 615 28 647 26 631 b 146 157 40 551 79 347 b 154 28 147 104 150 60 b 178 -1 156 15 165 3 b 226 -4 192 -6 208 -6 b 232 4 229 -3 232 0 b 229 161 228 42 228 97 b 394 699 296 328 364 526 z m 186 842 b 161 813 171 840 160 828 b 190 788 163 797 175 786 b 214 817 204 789 215 801 b 186 842 214 832 201 843 z m 268 838 b 243 808 254 836 243 822 b 272 782 244 793 257 782 b 297 811 286 783 297 796 b 268 838 296 826 283 838 z "},"Ý":{"ha":408,"x_min":0,"x_max":0,"o":"m 394 699 b 390 717 396 704 394 711 b 340 746 383 726 369 740 b 329 738 335 747 329 743 b 210 214 324 689 299 463 b 121 733 143 435 124 689 b 114 739 121 738 118 739 b 33 661 97 733 54 717 b 29 615 28 647 26 631 b 146 157 40 551 79 347 b 154 28 147 104 150 60 b 178 -1 156 15 165 3 b 226 -4 192 -6 208 -6 b 232 4 229 -3 232 0 b 229 161 228 42 228 97 b 394 699 296 328 364 526 z m 263 801 b 279 819 272 808 279 819 b 279 849 289 839 279 849 b 267 854 275 854 271 854 b 261 853 264 854 261 853 b 224 831 251 849 238 839 b 204 818 217 825 210 821 b 192 810 199 815 194 811 b 188 803 190 807 189 804 b 186 796 186 800 186 797 b 189 789 188 792 189 789 b 194 781 189 785 192 783 b 200 779 196 781 199 779 b 206 778 201 779 204 779 b 236 785 215 778 225 781 b 263 801 246 790 256 796 z "},"à":{"ha":476,"x_min":0,"x_max":0,"o":"m 536 379 b 524 388 532 382 528 385 b 515 382 519 389 515 386 b 390 65 507 335 456 67 b 374 499 328 64 364 418 b 357 532 375 513 368 525 b 283 539 333 547 301 543 b 269 522 276 538 271 531 b 264 443 268 507 265 479 b 217 468 243 465 217 468 b 31 219 54 497 31 219 b 118 25 31 219 6 31 b 265 239 197 22 244 158 b 381 19 275 125 306 21 b 544 349 381 19 488 4 b 536 379 547 360 543 371 z m 139 68 b 128 231 139 68 96 61 b 219 426 161 401 207 426 b 261 358 231 428 258 418 b 261 339 261 351 261 346 b 139 68 253 307 194 72 z m 240 601 b 268 586 249 596 258 590 b 299 579 279 581 289 579 b 304 579 300 579 303 579 b 310 582 306 581 308 581 b 315 589 313 583 314 586 b 317 596 315 589 317 592 b 317 603 318 599 317 600 b 313 610 315 606 314 608 b 300 618 310 613 306 615 b 281 631 294 622 288 626 b 243 653 267 639 253 649 b 238 654 243 653 240 654 b 224 650 233 656 229 654 b 225 621 224 650 215 640 b 240 601 225 621 231 610 z "},"á":{"ha":476,"x_min":0,"x_max":0,"o":"m 536 379 b 524 388 532 382 528 385 b 515 382 519 389 515 386 b 390 65 507 335 456 67 b 374 499 328 64 364 418 b 357 532 375 513 368 525 b 283 539 333 547 301 543 b 269 522 276 538 271 531 b 264 443 268 507 265 479 b 217 468 243 465 217 468 b 31 219 54 497 31 219 b 118 25 31 219 6 31 b 265 239 197 22 244 158 b 381 19 275 125 306 21 b 544 349 381 19 488 4 b 536 379 547 360 543 371 z m 139 68 b 128 231 139 68 96 61 b 219 426 161 401 207 426 b 261 358 231 428 258 418 b 261 339 261 351 261 346 b 139 68 253 307 194 72 z m 274 590 b 289 608 283 597 289 608 b 290 638 299 628 290 638 b 278 643 286 643 281 643 b 271 640 274 642 271 640 b 233 618 261 638 247 628 b 214 607 226 614 219 610 b 203 599 208 603 204 600 b 197 592 200 596 199 593 b 197 585 197 589 197 586 b 199 576 197 581 199 576 b 206 569 200 574 201 571 b 210 568 207 569 208 568 b 217 567 213 567 214 567 b 246 574 225 567 236 569 b 274 590 256 578 265 585 z "},"â":{"ha":476,"x_min":0,"x_max":0,"o":"m 536 379 b 524 388 532 382 528 385 b 515 382 519 389 515 386 b 390 65 507 335 456 67 b 374 499 328 64 364 418 b 357 532 375 513 368 525 b 283 539 333 547 301 543 b 269 522 276 538 271 531 b 264 443 268 507 265 479 b 217 468 243 465 217 468 b 31 219 54 497 31 219 b 118 25 31 219 6 31 b 265 239 197 22 244 158 b 381 19 275 125 306 21 b 544 349 381 19 488 4 b 536 379 547 360 543 371 z m 139 68 b 128 231 139 68 96 61 b 219 426 161 401 207 426 b 261 358 231 428 258 418 b 261 339 261 351 261 346 b 139 68 253 307 194 72 z m 322 594 b 319 600 322 596 321 599 b 310 608 318 603 315 606 b 294 619 306 611 300 615 b 265 640 283 628 272 636 b 264 642 265 640 264 640 b 257 643 261 643 258 643 b 250 642 254 643 251 643 b 247 642 249 642 247 642 b 217 622 240 638 228 629 b 200 613 211 618 206 615 b 190 606 196 610 192 607 b 188 600 189 603 188 601 b 188 594 186 597 186 596 b 189 589 188 592 189 589 b 196 585 190 588 193 586 b 200 583 197 583 199 583 b 206 583 203 583 204 583 b 232 590 214 583 224 586 b 256 604 240 594 249 600 b 256 604 256 604 256 604 b 256 604 256 604 256 604 b 278 589 261 599 269 593 b 303 579 286 585 294 581 b 308 579 304 579 307 579 b 313 581 310 579 311 581 b 319 585 317 581 318 582 b 322 590 319 585 322 586 b 322 594 322 592 324 593 z "},"ã":{"ha":476,"x_min":0,"x_max":0,"o":"m 536 379 b 524 388 532 382 528 385 b 515 382 519 389 515 386 b 390 65 507 335 456 67 b 374 499 328 64 364 418 b 357 532 375 513 368 525 b 283 539 333 547 301 543 b 269 522 276 538 271 531 b 264 443 268 507 265 479 b 217 468 243 465 217 468 b 31 219 54 497 31 219 b 118 25 31 219 6 31 b 265 239 197 22 244 158 b 381 19 275 125 306 21 b 544 349 381 19 488 4 b 536 379 547 360 543 371 z m 139 68 b 128 231 139 68 96 61 b 219 426 161 401 207 426 b 261 358 231 428 258 418 b 261 339 261 351 261 346 b 139 68 253 307 194 72 z m 315 590 b 240 614 307 631 261 622 b 192 632 219 606 210 636 b 188 601 174 626 188 601 b 282 583 213 550 271 583 b 308 571 297 585 297 569 b 315 590 318 572 315 590 z "},"ä":{"ha":476,"x_min":0,"x_max":0,"o":"m 536 379 b 524 388 532 382 528 385 b 515 382 519 389 515 386 b 390 65 507 335 456 67 b 374 499 328 64 364 418 b 357 532 375 513 368 525 b 283 539 333 547 301 543 b 269 522 276 538 271 531 b 264 443 268 507 265 479 b 217 468 243 465 217 468 b 31 219 54 497 31 219 b 118 25 31 219 6 31 b 265 239 197 22 244 158 b 381 19 275 125 306 21 b 544 349 381 19 488 4 b 536 379 547 360 543 371 z m 139 68 b 128 231 139 68 96 61 b 219 426 161 401 207 426 b 261 358 231 428 258 418 b 261 339 261 351 261 346 b 139 68 253 307 194 72 z m 208 633 b 183 604 193 632 182 619 b 213 578 185 589 197 578 b 236 607 226 579 238 592 b 208 633 236 622 224 633 z m 290 628 b 265 599 276 626 265 614 b 294 574 267 583 279 572 b 319 603 308 575 319 588 b 290 628 318 618 306 629 z "},"å":{"ha":476,"x_min":0,"x_max":0,"o":"m 536 379 b 524 388 532 382 528 385 b 515 382 519 389 515 386 b 390 65 507 335 456 67 b 374 499 328 64 364 418 b 357 532 375 513 368 525 b 283 539 333 547 301 543 b 269 522 276 538 271 531 b 264 443 268 507 265 479 b 217 468 243 465 217 468 b 31 219 54 497 31 219 b 118 25 31 219 6 31 b 265 239 197 22 244 158 b 381 19 275 125 306 21 b 544 349 381 19 488 4 b 536 379 547 360 543 371 z m 139 68 b 128 231 139 68 96 61 b 219 426 161 401 207 426 b 261 358 231 428 258 418 b 261 339 261 351 261 346 b 139 68 253 307 194 72 z m 240 636 b 208 604 222 636 208 622 b 240 571 208 586 222 571 b 272 604 258 571 272 586 b 240 636 272 622 258 636 z m 240 590 b 228 604 233 590 228 596 b 240 617 228 611 233 617 b 254 604 247 617 254 611 b 240 590 254 596 247 590 z "},"è":{"ha":294,"x_min":0,"x_max":0,"o":"m 282 204 b 269 222 281 210 276 217 b 261 219 267 225 263 224 b 143 47 251 186 206 46 b 125 226 114 49 119 167 b 250 332 208 221 250 332 b 269 410 260 356 267 386 b 213 528 282 525 213 528 b 39 314 71 533 39 314 b 135 14 39 314 -19 19 b 283 185 135 14 235 0 b 282 204 285 190 285 197 z m 214 474 b 211 349 214 474 256 465 b 128 264 211 349 181 269 b 214 474 132 283 167 481 z m 174 583 b 201 567 181 578 192 571 b 231 560 211 563 222 560 b 238 561 233 560 235 560 b 242 563 239 561 240 561 b 249 569 244 564 247 567 b 250 578 249 569 250 574 b 249 583 250 579 250 582 b 244 592 249 586 247 589 b 233 600 243 593 239 596 b 214 611 228 603 221 607 b 176 633 200 619 185 629 b 169 636 176 633 174 635 b 157 631 167 636 161 635 b 158 601 157 631 149 621 b 174 583 158 601 164 590 z "},"é":{"ha":294,"x_min":0,"x_max":0,"o":"m 282 204 b 269 222 281 210 276 217 b 261 219 267 225 263 224 b 143 47 251 186 206 46 b 125 226 114 49 119 167 b 250 332 208 221 250 332 b 269 410 260 356 267 386 b 213 528 282 525 213 528 b 39 314 71 533 39 314 b 135 14 39 314 -19 19 b 283 185 135 14 235 0 b 282 204 285 190 285 197 z m 214 474 b 211 349 214 474 256 465 b 128 264 211 349 181 269 b 214 474 132 283 167 481 z m 222 589 b 239 607 232 596 239 607 b 239 636 249 626 239 636 b 226 642 235 642 231 642 b 221 640 222 642 221 640 b 183 617 211 636 197 626 b 164 606 176 613 169 608 b 151 597 158 601 154 599 b 147 590 149 594 149 592 b 146 583 146 588 146 585 b 147 576 146 579 147 576 b 154 568 149 572 151 571 b 160 567 156 568 158 567 b 165 565 161 567 164 565 b 196 572 175 565 185 568 b 222 589 206 578 215 583 z "},"ê":{"ha":294,"x_min":0,"x_max":0,"o":"m 282 204 b 269 222 281 210 276 217 b 261 219 267 225 263 224 b 143 47 251 186 206 46 b 125 226 114 49 119 167 b 250 332 208 221 250 332 b 269 410 260 356 267 386 b 213 528 282 525 213 528 b 39 314 71 533 39 314 b 135 14 39 314 -19 19 b 283 185 135 14 235 0 b 282 204 285 190 285 197 z m 214 474 b 211 349 214 474 256 465 b 128 264 211 349 181 269 b 214 474 132 283 167 481 z m 258 581 b 256 586 257 582 257 585 b 246 594 253 588 250 590 b 231 606 240 597 236 601 b 200 626 219 614 208 622 b 199 628 200 626 200 626 b 192 629 196 629 193 629 b 185 628 189 629 188 629 b 183 626 183 628 183 626 b 151 608 175 624 163 615 b 136 599 146 604 140 601 b 125 590 131 594 128 593 b 122 585 124 589 122 588 b 122 581 122 583 122 582 b 124 575 122 578 124 575 b 131 571 125 572 128 571 b 136 569 132 569 133 569 b 142 569 138 569 139 569 b 167 576 149 569 158 572 b 190 590 175 581 183 585 b 190 590 190 590 190 590 b 190 590 190 590 190 590 b 213 575 196 585 204 579 b 238 565 221 569 231 567 b 243 565 240 565 242 565 b 249 567 244 565 247 565 b 256 571 251 567 253 568 b 257 575 256 571 257 572 b 258 581 258 576 258 579 z "},"ë":{"ha":294,"x_min":0,"x_max":0,"o":"m 282 204 b 269 222 281 210 276 217 b 261 219 267 225 263 224 b 143 47 251 186 206 46 b 125 226 114 49 119 167 b 250 332 208 221 250 332 b 269 410 260 356 267 386 b 213 528 282 525 213 528 b 39 314 71 533 39 314 b 135 14 39 314 -19 19 b 283 185 135 14 235 0 b 282 204 285 190 285 197 z m 214 474 b 211 349 214 474 256 465 b 128 264 211 349 181 269 b 214 474 132 283 167 481 z m 158 622 b 133 593 143 621 132 608 b 161 568 133 578 146 567 b 186 597 176 568 188 582 b 158 622 185 611 172 624 z m 240 617 b 215 588 225 617 214 603 b 243 563 217 574 229 561 b 268 592 258 564 269 576 b 240 617 267 607 254 618 z "},"ì":{"ha":190,"x_min":0,"x_max":0,"o":"m 68 538 b 96 521 76 531 86 525 b 125 514 106 517 117 514 b 132 514 128 514 129 514 b 136 517 133 515 135 515 b 143 524 140 518 142 521 b 144 531 143 524 144 526 b 144 538 144 533 144 535 b 139 544 143 540 142 543 b 128 553 138 547 133 550 b 108 565 122 557 115 561 b 71 588 94 574 79 583 b 64 589 71 588 68 589 b 51 585 61 590 56 589 b 53 556 51 585 43 575 b 68 538 53 556 58 544 z m 147 436 b 118 483 149 456 138 476 b 61 490 99 490 76 490 b 46 474 53 489 47 482 b 69 63 46 474 31 172 b 136 29 81 29 111 22 b 143 39 142 29 144 35 b 139 89 142 47 140 60 b 147 436 135 176 135 276 z "},"í":{"ha":190,"x_min":0,"x_max":0,"o":"m 126 536 b 142 554 136 543 142 554 b 143 583 153 574 143 583 b 131 588 139 588 135 589 b 125 586 126 588 125 586 b 88 564 115 582 101 572 b 68 553 81 560 74 556 b 56 543 63 549 58 546 b 51 536 53 542 51 539 b 50 529 50 535 50 532 b 51 522 50 525 51 522 b 58 515 53 519 56 517 b 64 514 60 514 61 514 b 69 513 65 513 68 513 b 99 519 78 513 89 515 b 126 536 110 524 119 529 z m 147 436 b 118 483 149 456 138 476 b 61 490 99 490 76 490 b 46 474 53 489 47 482 b 69 63 46 474 31 172 b 136 29 81 29 111 22 b 143 39 142 29 144 35 b 139 89 142 47 140 60 b 147 436 135 176 135 276 z "},"î":{"ha":190,"x_min":0,"x_max":0,"o":"m 161 532 b 158 538 160 533 160 536 b 149 546 156 539 153 542 b 133 557 144 549 139 553 b 103 578 122 565 111 574 b 101 579 103 578 103 578 b 94 581 99 581 97 581 b 88 579 92 581 90 581 b 86 578 86 579 86 578 b 54 560 78 575 67 567 b 39 550 49 556 43 553 b 28 542 33 546 31 544 b 25 536 26 540 25 539 b 25 532 25 535 25 533 b 28 526 25 529 28 526 b 33 522 29 525 31 522 b 39 521 35 521 36 521 b 44 521 40 521 42 521 b 69 528 51 521 61 524 b 93 542 79 532 86 536 b 93 542 93 542 93 542 b 93 542 93 542 93 542 b 115 526 99 536 107 531 b 140 517 124 521 133 518 b 146 517 143 517 144 517 b 151 518 149 517 150 517 b 158 522 154 518 157 519 b 160 526 158 522 160 524 b 161 532 161 528 161 531 z m 147 436 b 118 483 149 456 138 476 b 61 490 99 490 76 490 b 46 474 53 489 47 482 b 69 63 46 474 31 172 b 136 29 81 29 111 22 b 143 39 142 29 144 35 b 139 89 142 47 140 60 b 147 436 135 176 135 276 z "},"ï":{"ha":190,"x_min":0,"x_max":0,"o":"m 50 571 b 25 542 35 569 24 557 b 53 517 26 528 39 515 b 78 546 68 518 79 531 b 50 571 78 561 65 572 z m 132 567 b 107 538 118 565 107 553 b 136 513 108 522 121 511 b 161 540 150 513 161 526 b 132 567 160 556 147 567 z m 147 436 b 118 483 149 456 138 476 b 61 490 99 490 76 490 b 46 474 53 489 47 482 b 69 63 46 474 31 172 b 136 29 81 29 111 22 b 143 39 142 29 144 35 b 139 89 142 47 140 60 b 147 436 135 176 135 276 z "},"ñ":{"ha":388,"x_min":0,"x_max":0,"o":"m 360 21 b 239 493 339 97 396 500 b 124 346 190 490 150 414 b 131 488 125 394 128 442 b 117 513 131 497 126 507 b 39 517 93 526 57 526 b 32 506 35 514 32 510 b 43 39 25 350 26 126 b 53 28 44 35 47 29 b 117 21 71 18 93 17 b 125 31 122 21 126 26 b 121 96 124 49 122 71 b 236 436 139 263 203 438 b 263 139 271 433 260 300 b 268 22 263 67 267 35 b 275 11 269 18 271 14 b 351 6 303 -8 335 -1 b 360 21 358 8 361 14 z m 263 550 b 188 574 254 590 210 582 b 139 592 167 565 157 596 b 135 561 121 586 135 561 b 229 543 160 510 218 543 b 256 531 244 544 244 529 b 263 550 265 532 263 550 z "},"ò":{"ha":374,"x_min":0,"x_max":0,"o":"m 364 218 b 331 211 353 215 342 213 b 325 394 342 283 336 358 b 199 525 325 394 297 519 b 122 442 154 526 129 492 b 100 443 110 444 100 443 b 25 243 100 443 39 431 b 169 15 25 243 10 13 b 324 175 260 17 304 92 b 344 179 332 176 339 178 b 361 193 351 182 357 186 b 368 215 364 199 367 207 b 364 218 368 218 367 219 z m 200 479 b 279 360 260 481 279 360 b 281 213 288 307 286 257 b 200 290 247 221 218 244 b 175 396 189 319 178 371 b 200 479 165 481 200 479 z m 172 46 b 122 239 110 47 122 239 b 133 321 125 272 129 299 b 165 250 140 296 151 272 b 272 175 197 200 238 181 b 172 46 253 97 210 44 z m 167 579 b 194 563 175 574 185 568 b 224 557 204 558 215 556 b 231 557 226 557 228 557 b 235 558 232 557 233 558 b 242 567 239 561 240 563 b 243 574 242 567 243 569 b 243 581 243 575 243 578 b 239 588 242 583 240 585 b 226 596 236 590 232 593 b 207 608 221 600 214 604 b 169 631 193 617 179 626 b 163 632 169 631 167 632 b 150 626 160 632 154 632 b 151 599 150 626 142 618 b 167 579 151 599 157 588 z "},"ó":{"ha":374,"x_min":0,"x_max":0,"o":"m 364 218 b 331 211 353 215 342 213 b 325 394 342 283 336 358 b 199 525 325 394 297 519 b 122 442 154 526 129 492 b 100 443 110 444 100 443 b 25 243 100 443 39 431 b 169 15 25 243 10 13 b 324 175 260 17 304 92 b 344 179 332 176 339 178 b 361 193 351 182 357 186 b 368 215 364 199 367 207 b 364 218 368 218 367 219 z m 200 479 b 279 360 260 481 279 360 b 281 213 288 307 286 257 b 200 290 247 221 218 244 b 175 396 189 319 178 371 b 200 479 165 481 200 479 z m 172 46 b 122 239 110 47 122 239 b 133 321 125 272 129 299 b 165 250 140 296 151 272 b 272 175 197 200 238 181 b 172 46 253 97 210 44 z m 225 578 b 240 596 235 585 240 596 b 242 625 250 615 242 625 b 228 631 236 631 232 631 b 222 628 225 629 222 628 b 185 606 213 625 199 615 b 165 594 178 601 171 597 b 153 586 160 590 156 588 b 149 579 151 583 150 581 b 149 572 149 576 147 574 b 150 564 149 568 150 564 b 156 557 151 561 153 558 b 161 556 157 557 160 556 b 167 554 163 556 165 554 b 197 561 176 554 186 557 b 225 578 207 565 217 572 z "},"ô":{"ha":374,"x_min":0,"x_max":0,"o":"m 364 218 b 331 211 353 215 342 213 b 325 394 342 283 336 358 b 199 525 325 394 297 519 b 122 442 154 526 129 492 b 100 443 110 444 100 443 b 25 243 100 443 39 431 b 169 15 25 243 10 13 b 324 175 260 17 304 92 b 344 179 332 176 339 178 b 361 193 351 182 357 186 b 368 215 364 199 367 207 b 364 218 368 218 367 219 z m 200 479 b 279 360 260 481 279 360 b 281 213 288 307 286 257 b 200 290 247 221 218 244 b 175 396 189 319 178 371 b 200 479 165 481 200 479 z m 172 46 b 122 239 110 47 122 239 b 133 321 125 272 129 299 b 165 250 140 296 151 272 b 272 175 197 200 238 181 b 172 46 253 97 210 44 z m 264 571 b 261 576 264 572 263 575 b 251 585 260 579 257 582 b 236 596 247 588 242 592 b 207 617 225 604 214 613 b 204 618 207 617 206 617 b 199 619 203 619 200 619 b 192 618 196 619 193 619 b 189 618 190 618 189 618 b 158 599 182 614 169 606 b 142 589 153 594 146 592 b 132 582 138 586 133 583 b 129 576 131 579 129 578 b 129 571 128 574 128 572 b 131 565 129 568 131 565 b 138 561 132 564 135 561 b 142 560 139 560 140 560 b 147 560 143 560 146 560 b 174 567 156 560 165 563 b 196 581 182 571 190 576 b 197 581 197 581 197 581 b 197 581 197 581 197 581 b 219 565 203 575 211 569 b 244 556 228 561 236 557 b 250 556 246 556 249 556 b 254 557 251 556 253 556 b 261 561 257 557 260 558 b 264 565 261 561 263 563 b 264 571 264 568 264 569 z "},"õ":{"ha":374,"x_min":0,"x_max":0,"o":"m 364 218 b 331 211 353 215 342 213 b 325 394 342 283 336 358 b 199 525 325 394 297 519 b 122 442 154 526 129 492 b 100 443 110 444 100 443 b 25 243 100 443 39 431 b 169 15 25 243 10 13 b 324 175 260 17 304 92 b 344 179 332 176 339 178 b 361 193 351 182 357 186 b 368 215 364 199 367 207 b 364 218 368 218 367 219 z m 200 479 b 279 360 260 481 279 360 b 281 213 288 307 286 257 b 200 290 247 221 218 244 b 175 396 189 319 178 371 b 200 479 165 481 200 479 z m 172 46 b 122 239 110 47 122 239 b 133 321 125 272 129 299 b 165 250 140 296 151 272 b 272 175 197 200 238 181 b 172 46 253 97 210 44 z m 258 571 b 183 594 250 611 204 603 b 133 613 163 586 151 617 b 131 583 115 608 131 583 b 225 565 156 532 214 564 b 251 551 240 565 240 550 b 258 571 261 554 258 571 z "},"ö":{"ha":374,"x_min":0,"x_max":0,"o":"m 364 218 b 331 211 353 215 342 213 b 325 394 342 283 336 358 b 199 525 325 394 297 519 b 122 442 154 526 129 492 b 100 443 110 444 100 443 b 25 243 100 443 39 431 b 169 15 25 243 10 13 b 324 175 260 17 304 92 b 344 179 332 176 339 178 b 361 193 351 182 357 186 b 368 215 364 199 367 207 b 364 218 368 218 367 219 z m 200 479 b 279 360 260 481 279 360 b 281 213 288 307 286 257 b 200 290 247 221 218 244 b 175 396 189 319 178 371 b 200 479 165 481 200 479 z m 172 46 b 122 239 110 47 122 239 b 133 321 125 272 129 299 b 165 250 140 296 151 272 b 272 175 197 200 238 181 b 172 46 253 97 210 44 z m 151 614 b 126 585 136 613 125 600 b 154 560 128 569 140 558 b 179 589 169 560 181 574 b 151 614 178 603 165 615 z m 233 608 b 208 581 218 608 207 594 b 236 554 210 565 222 554 b 261 583 251 556 263 568 b 233 608 261 599 249 610 z "},"ù":{"ha":478,"x_min":0,"x_max":0,"o":"m 575 379 b 564 388 572 382 568 385 b 556 382 560 389 556 386 b 431 65 547 335 496 67 b 406 469 368 64 397 394 b 389 513 407 486 401 501 b 336 539 374 525 353 533 b 310 519 324 542 310 533 b 303 418 307 497 304 461 b 151 47 276 254 226 25 b 139 447 96 64 128 361 b 110 499 140 468 129 490 b 60 511 93 507 74 510 b 43 497 51 511 44 506 b 151 0 32 417 -17 19 b 307 235 228 -8 278 114 b 421 19 318 122 349 22 b 585 349 421 19 528 4 b 575 379 588 360 583 371 z m 204 601 b 231 585 211 596 221 589 b 261 578 242 581 251 578 b 267 579 263 578 265 578 b 272 581 269 579 271 579 b 279 588 275 582 278 585 b 281 594 279 588 281 590 b 279 601 281 597 281 600 b 275 608 278 604 278 607 b 263 618 272 611 268 614 b 243 629 257 621 250 625 b 206 651 229 638 215 647 b 200 654 206 651 204 653 b 188 649 196 654 192 653 b 188 619 188 649 178 639 b 204 601 188 619 194 608 z "},"ú":{"ha":478,"x_min":0,"x_max":0,"o":"m 575 379 b 564 388 572 382 568 385 b 556 382 560 389 556 386 b 431 65 547 335 496 67 b 406 469 368 64 397 394 b 389 513 407 486 401 501 b 336 539 374 525 353 533 b 310 519 324 542 310 533 b 303 418 307 497 304 461 b 151 47 276 254 226 25 b 139 447 96 64 128 361 b 110 499 140 468 129 490 b 60 511 93 507 74 510 b 43 497 51 511 44 506 b 151 0 32 417 -17 19 b 307 235 228 -8 278 114 b 421 19 318 122 349 22 b 585 349 421 19 528 4 b 575 379 588 360 583 371 z m 254 592 b 269 610 264 599 269 610 b 271 639 279 629 271 639 b 258 644 267 643 261 644 b 251 642 254 643 251 642 b 214 619 242 638 228 628 b 194 608 207 615 200 611 b 183 600 189 604 185 601 b 178 592 181 597 179 594 b 178 585 178 590 178 588 b 179 578 178 581 179 578 b 186 571 181 575 182 572 b 190 569 188 569 189 569 b 197 568 193 568 194 568 b 226 575 206 568 217 571 b 254 592 236 579 246 586 z "},"û":{"ha":478,"x_min":0,"x_max":0,"o":"m 575 379 b 564 388 572 382 568 385 b 556 382 560 389 556 386 b 431 65 547 335 496 67 b 406 469 368 64 397 394 b 389 513 407 486 401 501 b 336 539 374 525 353 533 b 310 519 324 542 310 533 b 303 418 307 497 304 461 b 151 47 276 254 226 25 b 139 447 96 64 128 361 b 110 499 140 468 129 490 b 60 511 93 507 74 510 b 43 497 51 511 44 506 b 151 0 32 417 -17 19 b 307 235 228 -8 278 114 b 421 19 318 122 349 22 b 585 349 421 19 528 4 b 575 379 588 360 583 371 z m 294 589 b 292 594 294 590 293 593 b 282 603 290 596 288 599 b 267 614 278 606 272 610 b 238 635 256 622 244 631 b 236 636 238 635 236 635 b 229 638 233 636 231 638 b 222 636 226 638 224 638 b 219 635 221 636 219 635 b 189 617 213 632 200 624 b 172 607 183 613 178 610 b 163 599 168 603 164 601 b 160 593 161 597 160 596 b 160 589 158 592 158 590 b 161 583 160 586 161 583 b 168 579 163 581 165 579 b 172 578 169 578 171 578 b 178 578 175 578 176 578 b 204 585 186 578 196 581 b 228 599 213 589 221 593 b 228 599 228 599 228 599 b 228 599 228 599 228 599 b 250 583 233 593 242 588 b 275 574 258 578 267 575 b 281 574 276 574 279 574 b 285 575 282 574 283 574 b 292 579 289 575 290 576 b 294 583 292 579 294 581 b 294 589 294 585 296 588 z "},"ü":{"ha":478,"x_min":0,"x_max":0,"o":"m 575 379 b 564 388 572 382 568 385 b 556 382 560 389 556 386 b 431 65 547 335 496 67 b 406 469 368 64 397 394 b 389 513 407 486 401 501 b 336 539 374 525 353 533 b 310 519 324 542 310 533 b 303 418 307 497 304 461 b 151 47 276 254 226 25 b 139 447 96 64 128 361 b 110 499 140 468 129 490 b 60 511 93 507 74 510 b 43 497 51 511 44 506 b 151 0 32 417 -17 19 b 307 235 228 -8 278 114 b 421 19 318 122 349 22 b 585 349 421 19 528 4 b 575 379 588 360 583 371 z m 176 621 b 151 592 161 619 150 607 b 179 567 151 576 165 565 b 204 596 194 568 206 581 b 176 621 203 611 190 622 z m 258 615 b 233 588 243 615 232 601 b 261 561 235 572 247 561 b 286 590 276 563 288 575 b 258 615 286 606 272 617 z "},"ý":{"ha":417,"x_min":0,"x_max":0,"o":"m 393 133 b 378 135 388 135 382 136 b 367 132 375 135 371 133 b 394 504 392 292 394 461 b 383 524 394 513 390 519 b 306 535 360 539 325 538 b 293 519 299 533 293 528 b 293 518 293 519 293 518 b 151 132 275 379 238 111 b 144 451 97 146 132 378 b 119 499 147 471 138 490 b 57 511 99 508 72 511 b 43 500 50 511 44 507 b 151 93 32 435 -17 108 b 294 271 224 86 268 176 b 282 149 293 229 289 188 b 272 92 282 149 279 125 b 164 -11 236 69 196 38 b 167 -178 74 -146 167 -178 b 263 -150 201 -192 236 -175 b 361 99 310 -101 342 -6 b 407 111 385 107 401 110 b 408 113 407 111 408 113 b 393 133 408 125 400 131 z m 167 -140 b 179 -46 144 -129 156 -83 b 231 18 199 -12 231 18 b 263 46 242 29 253 38 b 167 -140 243 -44 208 -160 z m 256 575 b 271 593 265 582 271 593 b 272 622 281 613 272 622 b 260 628 268 626 263 628 b 253 625 256 626 253 625 b 215 603 244 622 229 611 b 196 592 208 599 201 594 b 185 583 190 588 186 585 b 179 575 182 581 181 578 b 179 569 179 574 179 571 b 181 561 179 565 181 561 b 188 554 182 558 183 556 b 192 553 189 553 190 553 b 199 551 194 551 196 551 b 228 558 207 551 218 554 b 256 575 238 563 247 569 z "},"ÿ":{"ha":417,"x_min":0,"x_max":0,"o":"m 393 133 b 378 135 388 135 382 136 b 367 132 375 135 371 133 b 394 504 392 292 394 461 b 383 524 394 513 390 519 b 306 535 360 539 325 538 b 293 519 299 533 293 528 b 293 518 293 519 293 518 b 151 132 275 379 238 111 b 144 451 97 146 132 378 b 119 499 147 471 138 490 b 57 511 99 508 72 511 b 43 500 50 511 44 507 b 151 93 32 435 -17 108 b 294 271 224 86 268 176 b 282 149 293 229 289 188 b 272 92 282 149 279 125 b 164 -11 236 69 196 38 b 167 -178 74 -146 167 -178 b 263 -150 201 -192 236 -175 b 361 99 310 -101 342 -6 b 407 111 385 107 401 110 b 408 113 407 111 408 113 b 393 133 408 125 400 131 z m 167 -140 b 179 -46 144 -129 156 -83 b 231 18 199 -12 231 18 b 263 46 242 29 253 38 b 167 -140 243 -44 208 -160 z m 167 617 b 142 588 151 615 140 603 b 169 561 143 572 156 561 b 194 590 185 563 196 575 b 167 617 194 606 182 617 z m 249 611 b 224 582 235 610 224 597 b 253 557 225 567 238 556 b 278 586 267 558 278 571 b 249 611 276 601 264 613 z "},">":{"ha":690,"x_min":0,"x_max":0,"o":"m 458 311 b 511 200 450 236 471 199 b 549 238 529 201 542 218 b 551 194 549 218 550 203 b 565 179 551 186 558 181 b 581 179 571 178 576 178 b 583 183 582 179 583 181 b 593 461 576 282 590 431 b 586 475 593 467 592 472 b 556 479 578 483 561 481 b 551 475 553 479 551 478 b 547 381 549 439 549 418 b 522 390 539 389 529 389 b 458 311 510 390 467 379 z m 547 333 b 547 292 547 319 547 304 b 511 214 544 272 536 217 b 494 285 511 214 488 211 b 526 375 500 354 517 375 b 547 333 535 376 544 374 z m 394 247 b 397 200 394 218 396 206 b 400 196 397 199 399 197 b 431 193 411 188 424 192 b 435 200 433 194 435 197 b 386 390 426 231 449 393 b 339 331 365 389 350 358 b 342 388 340 350 340 369 b 336 397 342 392 340 396 b 304 400 326 404 313 404 b 301 394 303 399 303 397 b 300 321 301 372 300 347 b 256 218 292 283 275 218 b 249 392 229 218 244 360 b 242 406 249 397 246 403 b 213 408 232 411 219 410 b 207 403 208 408 207 406 b 204 369 206 396 204 385 b 185 381 196 379 185 381 b 110 281 119 392 110 281 b 146 201 110 281 100 204 b 204 288 178 200 196 256 b 251 199 208 242 221 200 b 301 264 251 199 279 196 b 307 207 303 240 304 221 b 310 203 307 206 308 203 b 336 200 318 199 326 199 b 340 204 339 200 340 201 b 338 231 339 211 339 219 b 385 367 344 297 371 368 b 394 247 399 367 394 313 z m 154 219 b 150 285 154 219 136 217 b 186 364 163 353 181 363 b 203 336 190 364 201 360 b 203 328 203 333 203 331 b 154 219 200 315 176 221 z m 613 136 b 332 151 557 167 450 172 b 146 157 238 135 179 146 b 97 186 111 169 99 186 b 82 189 94 192 86 193 b 79 172 76 185 75 178 b 336 128 81 169 140 93 b 601 115 447 147 551 143 b 607 114 604 115 606 114 b 618 121 611 114 615 117 b 613 136 621 126 618 133 z m 99 471 b 272 429 101 468 154 429 b 347 433 294 429 319 431 b 378 438 358 435 368 436 b 507 440 436 446 475 450 b 522 449 514 439 521 442 b 514 463 524 454 521 461 b 375 461 478 475 436 469 b 343 457 365 460 356 458 b 167 465 260 447 201 457 b 113 489 131 476 114 489 b 96 488 108 493 100 492 b 99 471 93 482 93 475 z m 53 324 b 35 304 43 324 35 315 b 53 286 35 294 43 286 b 72 304 64 286 72 294 b 53 324 72 315 64 324 z m 636 314 b 618 296 626 314 618 306 b 636 278 618 286 626 278 b 656 296 647 278 656 286 b 636 314 656 306 647 314 z "},"(":{"ha":393,"x_min":0,"x_max":0,"o":"m 314 301 b 35 296 224 343 31 375 b 314 301 39 217 314 301 z m 358 350 b 183 460 317 426 222 538 b 358 350 150 393 358 350 z m 353 242 b 178 132 353 242 144 200 b 353 242 217 54 311 167 z "},")":{"ha":393,"x_min":0,"x_max":0,"o":"m 79 301 b 358 296 79 301 356 217 b 79 301 363 375 171 343 z m 35 350 b 210 460 35 350 243 393 b 35 350 171 538 76 426 z m 40 242 b 215 132 82 167 176 54 b 40 242 249 200 40 242 z "},"":{"ha":376,"x_min":0,"x_max":0,"o":"m 276 -12 b 361 -3 297 -31 340 -12 b 363 10 365 0 367 6 b 339 108 338 33 339 108 b 371 718 338 350 364 654 b 356 753 371 732 365 744 b 276 764 332 771 293 767 b 268 753 272 763 268 758 b 254 471 261 661 257 564 b 193 492 235 489 210 490 b 33 297 163 494 53 467 b 164 22 11 111 64 18 b 257 114 210 24 239 67 b 276 -12 257 114 250 11 z m 165 57 b 122 231 165 57 106 50 b 201 457 138 406 179 456 b 253 353 221 457 249 450 b 254 247 253 317 253 281 b 165 57 249 200 228 64 z "},"":{"ha":365,"x_min":0,"x_max":0,"o":"m 344 60 b 222 467 281 85 364 454 b 119 358 179 471 143 414 b 140 725 126 517 138 675 b 124 758 142 739 135 751 b 54 765 100 771 71 768 b 43 751 47 764 43 758 b 40 40 38 674 13 201 b 68 10 43 25 53 14 b 108 7 81 6 93 6 b 121 22 115 7 121 14 b 115 243 114 72 114 153 b 203 407 129 307 158 401 b 219 236 203 407 222 390 b 268 14 217 83 243 25 b 349 51 290 8 332 17 b 344 60 350 54 349 58 z "},"":{"ha":461,"x_min":0,"x_max":0,"o":"m 325 0 b 404 4 349 -21 383 -7 b 413 29 414 10 417 21 b 392 236 388 76 392 236 b 406 469 392 328 401 432 b 389 513 407 486 401 501 b 336 539 374 525 353 533 b 310 519 324 542 310 533 b 303 418 307 497 304 461 b 151 47 276 254 226 25 b 139 447 96 64 128 361 b 110 499 140 468 129 490 b 60 511 93 507 72 510 b 43 497 51 511 44 506 b 151 0 32 417 -17 19 b 307 235 228 -8 278 114 b 325 0 307 235 299 25 z "},"":{"ha":346,"x_min":0,"x_max":0,"o":"m 51 764 b 43 753 47 763 43 758 b 38 7 19 453 28 97 b 74 -32 40 -12 54 -29 b 110 -31 88 -35 101 -32 b 117 -22 114 -31 117 -26 b 144 718 101 225 138 642 b 131 753 146 732 140 744 b 51 764 107 771 68 767 z m 222 701 b 213 692 217 701 213 697 b 211 7 189 392 201 97 b 246 -32 213 -12 228 -29 b 282 -31 260 -35 274 -32 b 290 -22 288 -31 290 -26 b 315 657 274 225 308 579 b 300 692 317 669 311 683 b 222 701 276 710 239 706 z "},"":{"ha":4215,"x_min":0,"x_max":0,"o":"m 3374 425 b 3356 465 3375 463 3356 465 b 3290 260 3297 471 3290 260 b 3319 47 3290 260 3281 46 b 3422 229 3382 50 3415 193 b 3432 232 3424 232 3428 235 b 3444 214 3438 226 3442 219 b 3447 194 3447 208 3449 201 b 3313 13 3415 7 3313 13 b 3193 304 3158 6 3193 304 b 3349 511 3193 304 3207 506 b 3392 493 3349 511 3375 513 b 3410 454 3400 485 3406 471 b 3408 438 3411 449 3411 443 b 3383 417 3404 426 3394 419 b 3374 425 3379 417 3374 421 z m 1660 -12 b 1744 -3 1681 -31 1725 -12 b 1747 10 1749 0 1750 6 b 1722 108 1722 33 1722 108 b 1754 718 1722 350 1749 654 b 1739 753 1756 732 1750 744 b 1661 764 1715 771 1678 767 b 1651 753 1656 763 1653 758 b 1639 471 1644 661 1640 564 b 1576 492 1618 489 1594 490 b 1417 297 1546 494 1438 467 b 1549 22 1394 111 1447 18 b 1640 114 1594 24 1624 67 b 1660 -12 1640 114 1633 11 z m 1550 57 b 1506 231 1550 57 1490 50 b 1586 457 1521 406 1563 456 b 1638 353 1606 457 1632 450 b 1638 247 1638 317 1638 281 b 1550 57 1632 200 1611 64 z m 3804 60 b 3682 467 3742 85 3824 454 b 3579 358 3639 471 3604 414 b 3601 725 3586 517 3597 675 b 3583 758 3601 739 3596 751 b 3514 765 3561 771 3531 768 b 3503 751 3508 764 3503 758 b 3500 40 3499 674 3474 201 b 3528 10 3503 25 3514 14 b 3568 7 3540 6 3554 6 b 3581 22 3576 7 3582 14 b 3576 243 3575 72 3574 153 b 3664 407 3590 307 3618 401 b 3679 236 3664 407 3682 390 b 3728 14 3678 83 3703 25 b 3808 51 3750 8 3793 17 b 3804 60 3810 54 3808 58 z m 958 436 b 931 483 961 456 950 476 b 874 490 910 490 888 490 b 858 474 865 489 858 482 b 882 63 858 474 843 172 b 949 28 893 29 924 22 b 956 39 954 29 957 35 b 951 89 954 47 953 60 b 958 436 947 176 947 276 z m 908 508 b 958 514 956 497 958 514 b 874 540 969 550 882 563 b 908 508 865 517 908 508 z m 3118 436 b 3089 483 3119 456 3108 476 b 3032 490 3069 490 3047 490 b 3017 474 3024 489 3018 482 b 3040 63 3017 474 3003 172 b 3108 28 3051 29 3082 22 b 3114 39 3113 29 3115 35 b 3110 89 3113 47 3111 60 b 3118 436 3106 176 3106 276 z m 3068 508 b 3117 514 3115 497 3117 514 b 3032 540 3128 550 3040 563 b 3068 508 3024 517 3068 508 z m 1360 21 b 1239 493 1339 97 1396 500 b 1124 346 1190 490 1150 414 b 1131 488 1126 394 1128 442 b 1117 513 1131 497 1126 507 b 1039 517 1093 526 1057 526 b 1032 506 1035 514 1032 510 b 1043 39 1025 350 1026 126 b 1053 28 1044 35 1047 29 b 1117 21 1071 18 1093 17 b 1125 31 1122 21 1126 26 b 1121 96 1124 49 1122 71 b 1236 436 1139 263 1203 438 b 1263 139 1271 433 1260 300 b 1268 22 1263 67 1267 35 b 1275 11 1269 18 1271 14 b 1351 6 1303 -8 1335 -1 b 1360 21 1358 8 1361 14 z m 813 699 b 804 729 814 710 811 721 b 776 744 797 736 788 743 b 771 740 774 744 771 743 b 526 208 764 690 707 264 b 553 711 531 407 549 661 b 547 728 554 717 551 724 b 464 742 522 750 482 746 b 454 731 458 740 454 736 b 453 22 450 658 424 172 b 465 7 454 15 460 10 b 529 0 483 -1 504 -3 b 533 7 532 0 533 3 b 526 131 529 36 526 81 b 669 18 551 86 600 25 b 706 25 682 17 694 19 b 754 69 721 35 743 49 b 750 75 756 72 753 76 b 546 172 721 71 610 60 b 813 699 739 254 797 582 z m 2906 97 b 2703 193 2876 92 2767 82 b 2961 510 2754 211 2972 306 b 2672 742 2951 689 2771 732 b 2607 686 2639 746 2608 719 b 2597 340 2601 610 2594 472 b 2613 31 2600 221 2607 94 b 2636 -1 2614 17 2622 4 b 2686 -4 2650 -6 2668 -7 b 2697 10 2693 -4 2699 3 b 2692 136 2693 43 2692 96 b 2825 39 2719 94 2763 46 b 2861 47 2838 39 2850 42 b 2908 92 2876 56 2899 71 b 2906 97 2911 94 2908 97 z m 2704 685 b 2878 482 2704 685 2878 657 b 2692 228 2878 307 2692 228 b 2690 326 2690 254 2690 294 b 2704 685 2690 472 2704 685 z m 2276 311 b 2329 200 2268 236 2289 199 b 2367 238 2349 201 2360 218 b 2369 194 2368 218 2368 203 b 2383 179 2371 186 2376 181 b 2399 179 2389 178 2396 178 b 2401 183 2400 179 2401 181 b 2411 461 2394 282 2408 431 b 2406 475 2411 467 2410 472 b 2374 479 2396 483 2381 481 b 2369 475 2371 479 2369 478 b 2367 381 2367 439 2367 418 b 2342 390 2358 389 2349 389 b 2276 311 2329 390 2285 379 z m 2365 333 b 2365 292 2365 319 2365 304 b 2331 214 2364 272 2356 217 b 2313 285 2331 214 2306 211 b 2344 375 2318 354 2336 375 b 2365 333 2353 376 2364 374 z m 2213 247 b 2215 200 2214 218 2215 206 b 2218 196 2217 199 2217 197 b 2250 193 2229 188 2243 192 b 2253 200 2251 194 2253 197 b 2204 390 2244 231 2267 393 b 2157 331 2185 389 2168 358 b 2160 388 2158 350 2160 369 b 2156 397 2160 392 2158 396 b 2124 400 2146 404 2131 404 b 2121 394 2122 399 2121 397 b 2119 321 2119 372 2119 347 b 2074 218 2111 283 2094 218 b 2067 392 2049 218 2063 360 b 2060 406 2067 397 2065 403 b 2031 408 2050 411 2038 410 b 2025 403 2028 408 2025 406 b 2022 369 2024 396 2024 385 b 2003 381 2014 379 2003 381 b 1928 281 1938 392 1928 281 b 1964 201 1928 281 1918 204 b 2024 288 1996 200 2015 256 b 2069 199 2028 242 2039 200 b 2119 264 2069 199 2097 196 b 2125 207 2121 240 2122 221 b 2129 203 2125 206 2126 203 b 2154 200 2136 199 2146 199 b 2158 204 2157 200 2158 201 b 2157 231 2157 211 2157 219 b 2203 367 2164 297 2189 368 b 2213 247 2217 367 2213 313 z m 1972 219 b 1968 285 1972 219 1956 217 b 2004 364 1981 353 2000 363 b 2021 336 2008 364 2021 360 b 2021 328 2021 333 2021 331 b 1972 219 2018 315 1994 221 z m 2432 136 b 2150 151 2376 167 2268 172 b 1964 157 2056 135 1997 146 b 1917 186 1929 169 1917 186 b 1900 189 1913 192 1906 193 b 1897 172 1894 185 1893 178 b 2154 128 1900 169 1958 93 b 2421 115 2265 147 2369 143 b 2426 114 2422 115 2424 114 b 2436 121 2431 114 2435 117 b 2432 136 2439 126 2438 133 z m 1917 471 b 2090 429 1919 468 1972 429 b 2165 433 2113 429 2138 431 b 2197 438 2176 435 2186 436 b 2326 440 2256 446 2293 450 b 2340 449 2332 439 2339 442 b 2333 463 2343 454 2339 461 b 2193 461 2296 475 2256 469 b 2163 457 2183 460 2174 458 b 1986 465 2078 447 2019 457 b 1932 489 1949 476 1932 489 b 1915 488 1926 493 1919 492 b 1917 471 1911 482 1913 475 z m 1872 324 b 1853 304 1861 324 1853 315 b 1872 286 1853 294 1861 286 b 1890 304 1882 286 1890 294 b 1872 324 1890 315 1882 324 z m 2454 314 b 2436 296 2444 314 2436 306 b 2454 278 2436 286 2444 278 b 2474 296 2465 278 2474 286 b 2454 314 2474 306 2465 314 z m 325 301 b 46 296 235 343 42 375 b 325 301 50 217 325 301 z m 369 350 b 194 460 328 426 233 538 b 369 350 161 393 369 350 z m 364 242 b 189 132 364 242 156 200 b 364 242 228 54 322 167 z m 3894 301 b 4174 296 3894 301 4171 217 b 3894 301 4178 375 3986 343 z m 3850 350 b 4025 460 3850 350 4058 393 b 3850 350 3986 538 3892 426 z m 3856 242 b 4031 132 3897 167 3992 54 b 3856 242 4064 200 3856 242 z "},"":{"ha":407,"x_min":0,"x_max":0,"o":"m 379 33 b 379 44 382 38 382 42 b 354 242 349 69 354 242 b 374 499 357 343 368 457 b 357 532 375 513 368 525 b 283 539 333 547 301 543 b 269 522 276 538 271 531 b 264 443 268 507 265 479 b 217 468 243 465 217 468 b 31 219 54 497 31 219 b 118 25 31 219 6 31 b 265 239 197 22 244 158 b 300 4 265 239 249 19 b 379 33 339 -7 368 21 z m 139 68 b 128 231 139 68 96 61 b 219 426 161 401 207 426 b 261 358 231 428 258 418 b 261 339 261 351 261 346 b 139 68 253 307 194 72 z "}}}
